<svg xmlns="http://www.w3.org/2000/svg" width="1920" height="1080" viewBox="0 0 1920 1080" version="1.1"><path d="M 1613 225.717 C 1606.879 227.998, 1593.737 234.731, 1586.812 239.134 C 1543.127 266.908, 1505.139 316.786, 1454.008 413.500 C 1451.100 419, 1447.264 426.200, 1445.483 429.500 C 1442.140 435.692, 1437.573 444.379, 1424.979 468.500 C 1409.273 498.580, 1388.955 535.926, 1378.191 554.500 C 1313.237 666.576, 1251.236 736.146, 1175.982 781.393 C 1131.630 808.061, 1089.109 823.751, 1031 834.892 C 1012.120 838.511, 969.946 841.964, 944.500 841.974 C 925.131 841.981, 886.887 839.566, 866.500 837.050 C 850.517 835.077, 826.609 831.528, 822.129 830.464 C 820.427 830.060, 823.567 834.076, 833.263 844.701 C 895.292 912.676, 969.135 952.342, 1060 966.494 C 1099.508 972.647, 1155.513 972.468, 1200.500 966.044 C 1353.870 944.142, 1519.662 859.809, 1660.500 732.057 C 1672.385 721.277, 1716.773 676.252, 1726.678 664.930 C 1777.786 606.512, 1812.474 553.695, 1835.327 499.500 C 1857.425 447.096, 1864.722 396.023, 1855.882 355.626 C 1854.022 347.127, 1853.724 346.557, 1848.833 342.160 C 1846.024 339.634, 1840.153 332.940, 1835.787 327.284 C 1831.420 321.628, 1827.685 317, 1827.487 317 C 1827.289 317, 1829.089 321.163, 1831.487 326.250 C 1862.397 391.823, 1842.395 481.057, 1774.271 581.500 C 1691.463 703.594, 1548.141 821.865, 1399.939 890.402 C 1318.505 928.063, 1242.275 949.418, 1165.500 956.080 C 1148.445 957.560, 1105.924 957.555, 1089.500 956.070 C 1008.239 948.726, 939.389 920.925, 881.511 872.085 C 870.722 862.980, 857.811 850.856, 858.341 850.326 C 858.551 850.116, 864.297 850.610, 871.111 851.424 C 908.101 855.840, 960.132 856.781, 993.139 853.630 C 1143.998 839.227, 1255.330 767.771, 1351.687 623.500 C 1379.648 581.635, 1398.596 548.388, 1448.004 454.500 C 1483.241 387.542, 1495.359 366.117, 1514.579 336.796 C 1553.851 276.886, 1591.048 244.448, 1632.246 234.181 C 1635.957 233.257, 1638.994 232.195, 1638.996 231.822 C 1638.998 231.449, 1636.498 230.208, 1633.440 229.063 C 1623.804 225.458, 1616.780 224.308, 1613 225.717" stroke="none" fill="#6a0202" fill-rule="evenodd"/><path d="M 1624 278.433 C 1590.681 292.102, 1567.595 315.880, 1546.254 358.509 C 1535.586 379.819, 1528.082 398.119, 1507.505 453 C 1484.648 513.961, 1465.840 555.186, 1443.177 594 C 1368.731 721.504, 1250.232 811.317, 1074.098 873.732 C 1062.219 877.941, 1052.341 881.495, 1052.147 881.629 C 1051.745 881.906, 1055.992 895, 1056.484 895 C 1056.661 895, 1064.386 892.350, 1073.652 889.111 C 1251.058 827.101, 1371.906 737.894, 1449.056 612 C 1475.154 569.412, 1494.340 528.213, 1521.005 457.500 C 1542.146 401.436, 1548.372 386.172, 1557.870 367.129 C 1579.705 323.353, 1601.213 301.622, 1634.702 289.503 C 1635.007 289.392, 1630.514 277.180, 1629.971 276.643 C 1629.712 276.387, 1627.025 277.192, 1624 278.433" stroke="none" fill="#ff7070" fill-rule="evenodd"/><path d="M 1814.733 105.789 C 1813.068 105.998, 1812.231 106.565, 1812.632 107.214 C 1813.083 107.943, 1812.361 108.073, 1810.399 107.615 C 1808.209 107.105, 1807.867 107.198, 1809 107.998 C 1810.209 108.852, 1810.016 109.022, 1808 108.873 C 1803.623 108.551, 1801.853 108.953, 1802.566 110.107 C 1803.032 110.861, 1802.533 110.987, 1801 110.500 C 1799.314 109.965, 1798.947 110.106, 1799.539 111.063 C 1800.101 111.973, 1799.846 112.155, 1798.652 111.697 C 1796.798 110.985, 1792 112.805, 1792 114.220 C 1792 114.714, 1791.550 114.840, 1791 114.500 C 1789.473 113.556, 1788.014 114.874, 1788.676 116.599 C 1789.094 117.687, 1789.576 117.824, 1790.333 117.067 C 1790.920 116.480, 1791.958 116, 1792.640 116 C 1794.780 116, 1806.055 110.389, 1805.344 109.677 C 1804.971 109.305, 1805.192 109, 1805.833 109 C 1806.475 109, 1807 109.466, 1807 110.035 C 1807 110.728, 1807.605 110.747, 1808.827 110.093 C 1810.536 109.178, 1814.552 108.291, 1818 108.067 C 1819.152 107.992, 1819.205 107.782, 1818.227 107.162 C 1817.511 106.707, 1819.808 106.386, 1823.477 106.427 C 1827.065 106.467, 1830 106.864, 1830 107.309 C 1830 107.754, 1829.480 107.797, 1828.845 107.405 C 1828.130 106.962, 1827.962 107.130, 1828.405 107.845 C 1828.797 108.480, 1829.585 109, 1830.155 109 C 1830.725 109, 1832.386 109.851, 1833.846 110.890 C 1835.306 111.930, 1836.950 112.830, 1837.500 112.890 C 1838.050 112.951, 1838.556 113.450, 1838.625 114 C 1838.891 116.127, 1839.046 116.207, 1840.523 114.981 C 1841.796 113.924, 1841.943 113.986, 1841.416 115.359 C 1841.066 116.271, 1841.277 117, 1841.893 117 C 1842.502 117, 1843 117.758, 1843 118.686 C 1843 119.613, 1844.013 121.485, 1845.250 122.847 C 1846.487 124.208, 1846.977 125.023, 1846.339 124.657 C 1845.700 124.291, 1846.090 125.881, 1847.206 128.189 C 1848.321 130.498, 1849.304 132.863, 1849.389 133.444 C 1849.710 135.630, 1851.513 135.405, 1851.834 133.139 C 1852.064 131.513, 1851.797 131.007, 1850.977 131.514 C 1850.122 132.042, 1849.988 131.614, 1850.500 130 C 1851.035 128.314, 1850.894 127.947, 1849.937 128.539 C 1849.021 129.105, 1848.846 128.843, 1849.319 127.612 C 1849.762 126.456, 1849.599 126.130, 1848.819 126.612 C 1848.046 127.090, 1847.872 126.776, 1848.296 125.671 C 1848.690 124.643, 1848.091 123.197, 1846.716 121.860 C 1845.497 120.675, 1845.107 120.051, 1845.850 120.474 C 1846.948 121.098, 1846.982 120.835, 1846.034 119.064 C 1845.394 117.867, 1844.226 116.640, 1843.440 116.339 C 1842.654 116.037, 1842.220 115.453, 1842.475 115.041 C 1842.910 114.337, 1840.821 112.165, 1836.727 109.061 C 1835.157 107.871, 1835.035 107.933, 1835.664 109.609 C 1836.290 111.275, 1836.175 111.338, 1834.698 110.137 C 1833.776 109.387, 1833.312 108.305, 1833.666 107.732 C 1834.021 107.157, 1833.830 106.987, 1833.240 107.352 C 1832.652 107.715, 1831.991 107.473, 1831.771 106.814 C 1831.380 105.641, 1820.920 105.012, 1814.733 105.789 M 1786 116.859 C 1786 117.551, 1785.550 117.840, 1785 117.500 C 1784.450 117.160, 1784 117.359, 1784 117.941 C 1784 118.523, 1783.662 118.929, 1783.250 118.841 C 1782.838 118.754, 1781.675 119.042, 1780.666 119.480 C 1779.201 120.118, 1779.100 120.469, 1780.166 121.226 C 1781.117 121.901, 1780.852 122.031, 1779.243 121.678 C 1777.751 121.351, 1776.533 121.828, 1775.653 123.085 C 1774.920 124.131, 1774.100 124.767, 1773.831 124.498 C 1773.562 124.228, 1772.286 125.131, 1770.996 126.504 C 1769.312 128.297, 1769.052 129.033, 1770.076 129.118 C 1770.859 129.183, 1770.150 129.525, 1768.500 129.878 C 1766.850 130.231, 1765.500 131.078, 1765.500 131.760 C 1765.500 132.442, 1765.155 132.993, 1764.733 132.985 C 1763.346 132.957, 1758.296 139.461, 1758.315 141.250 C 1758.340 143.621, 1760.063 143.474, 1760.698 141.047 C 1760.979 139.972, 1762.301 138.377, 1763.636 137.503 C 1764.971 136.628, 1765.798 135.482, 1765.473 134.956 C 1765.148 134.430, 1765.442 134, 1766.127 134 C 1768.130 134, 1771.905 129.915, 1771.316 128.382 C 1770.962 127.460, 1771.273 127.168, 1772.221 127.531 C 1773.026 127.840, 1776.391 126.078, 1779.832 123.545 C 1783.224 121.047, 1786 119.318, 1786 119.702 C 1786 120.086, 1786.540 119.860, 1787.200 119.200 C 1788.133 118.267, 1788.133 117.733, 1787.200 116.800 C 1786.267 115.867, 1786 115.880, 1786 116.859 M 1754.626 144.483 C 1753.732 145.867, 1752.213 148.220, 1751.250 149.711 C 1749.877 151.839, 1749.823 152.234, 1751 151.548 C 1751.825 151.067, 1751.267 151.846, 1749.760 153.280 C 1747.924 155.026, 1747.237 156.455, 1747.680 157.607 C 1748.078 158.646, 1747.941 159.082, 1747.335 158.707 C 1746.015 157.891, 1742.965 164.325, 1743.931 165.888 C 1744.860 167.391, 1746.289 165.836, 1748.494 160.923 C 1750.053 157.448, 1751.060 155.690, 1754.318 150.754 C 1755.318 149.239, 1755.831 148, 1755.457 148 C 1755.084 148, 1755.774 147.193, 1756.992 146.208 C 1758.909 144.655, 1759.008 144.251, 1757.729 143.190 C 1756.518 142.185, 1755.960 142.418, 1754.626 144.483 M 1827.925 150.408 C 1827.634 150.700, 1825.844 151.009, 1823.948 151.096 C 1819.070 151.319, 1816.879 151.995, 1817.544 153.072 C 1817.860 153.582, 1817.679 154, 1817.142 154 C 1816.606 154, 1815.990 153.470, 1815.774 152.823 C 1815.541 152.122, 1814.848 151.976, 1814.063 152.461 C 1812.985 153.127, 1813.004 153.423, 1814.163 154.071 C 1815.788 154.981, 1824.172 154.088, 1823.545 153.072 C 1823.317 152.703, 1827.826 152.424, 1833.565 152.451 C 1839.304 152.478, 1844 152.838, 1844 153.250 C 1844 154.560, 1848.085 154.058, 1849.579 152.564 C 1851.327 150.815, 1850.226 149.982, 1847.500 150.990 C 1846.400 151.398, 1844.600 151.409, 1843.500 151.015 C 1841.078 150.148, 1828.668 149.665, 1827.925 150.408 M 1798.949 159.471 C 1798.497 160.587, 1798.098 160.868, 1798.063 160.095 C 1798.013 158.973, 1797.632 159.023, 1796.169 160.347 C 1795.162 161.259, 1794.013 161.680, 1793.616 161.283 C 1793.219 160.886, 1793.174 161.289, 1793.515 162.179 C 1793.857 163.069, 1793.656 164.095, 1793.068 164.458 C 1792.481 164.821, 1791.993 164.529, 1791.985 163.809 C 1791.975 163.010, 1791.683 162.889, 1791.235 163.500 C 1790.831 164.050, 1789.838 164.500, 1789.030 164.500 C 1788.221 164.500, 1786.990 165.625, 1786.294 167 C 1785.599 168.375, 1785.023 169.155, 1785.015 168.734 C 1784.993 167.581, 1769.500 183.309, 1769.500 184.484 C 1769.500 185.043, 1768.966 185.500, 1768.312 185.500 C 1766.829 185.500, 1758.844 196.511, 1759.704 197.371 C 1760.050 197.717, 1759.667 198, 1758.852 198 C 1757.554 198, 1754.077 203.514, 1754.385 205.083 C 1754.448 205.404, 1753.165 206.814, 1751.532 208.218 C 1748.953 210.437, 1748.743 210.985, 1749.924 212.408 C 1751.073 213.793, 1751.068 213.967, 1749.891 213.539 C 1748.692 213.101, 1743 219.595, 1743 221.401 C 1743 221.721, 1741.425 224.046, 1739.500 226.568 C 1737.575 229.090, 1736 231.910, 1736 232.836 C 1736 233.762, 1735.100 235.081, 1734 235.768 C 1732.900 236.455, 1732.014 237.576, 1732.030 238.258 C 1732.047 238.941, 1732.519 238.713, 1733.080 237.750 C 1733.641 236.787, 1734.617 236, 1735.250 236 C 1736.089 236, 1736.076 236.324, 1735.200 237.200 C 1734.540 237.860, 1734 238.846, 1734 239.391 C 1734 239.936, 1734.635 239.514, 1735.411 238.452 C 1736.188 237.391, 1736.611 236.180, 1736.352 235.761 C 1736.094 235.342, 1736.299 235, 1736.808 235 C 1737.653 235, 1738.816 233.434, 1744.581 224.539 C 1745.636 222.910, 1745.938 221.924, 1745.250 222.348 C 1744.563 222.771, 1744 222.697, 1744 222.181 C 1744 221.068, 1746.505 218.839, 1747.095 219.428 C 1747.320 219.654, 1749.021 217.512, 1750.874 214.669 C 1752.727 211.826, 1753.649 210.063, 1752.922 210.750 C 1750.871 212.689, 1749.843 212.224, 1751.239 209.988 C 1751.930 208.882, 1753.052 208.190, 1753.733 208.451 C 1755.181 209.007, 1757.557 205.178, 1757.115 203 C 1756.947 202.175, 1757.147 201.832, 1757.559 202.237 C 1758.260 202.927, 1764.019 196.026, 1764.191 194.291 C 1764.234 193.856, 1765.067 192.941, 1766.043 192.257 C 1767.139 191.489, 1767.657 190.153, 1767.397 188.757 C 1767.167 187.516, 1767.229 187.013, 1767.536 187.641 C 1767.852 188.288, 1773.335 183.524, 1780.195 176.641 C 1786.851 169.963, 1792.567 164.616, 1792.898 164.758 C 1793.229 164.900, 1794.400 164.246, 1795.500 163.304 C 1796.600 162.362, 1797.598 161.796, 1797.718 162.046 C 1797.837 162.296, 1798.812 161.749, 1799.883 160.832 C 1800.954 159.915, 1802.094 159.427, 1802.415 159.749 C 1802.737 160.070, 1803 159.782, 1803 159.108 C 1803 158.434, 1803.520 158.203, 1804.155 158.595 C 1804.846 159.023, 1805.038 158.871, 1804.635 158.218 C 1803.545 156.454, 1799.842 157.271, 1798.949 159.471 M 1739.490 179.016 C 1739.144 179.575, 1738.490 179.803, 1738.036 179.522 C 1736.866 178.799, 1735.939 181.677, 1736.701 183.664 C 1737.131 184.783, 1736.957 185.091, 1736.170 184.605 C 1735.526 184.207, 1735 184.322, 1735 184.859 C 1735 185.397, 1734.733 186.661, 1734.406 187.668 C 1733.911 189.192, 1733.993 189.248, 1734.890 188 C 1736.094 186.327, 1736.380 187.847, 1735.361 190.502 C 1734.846 191.843, 1734.541 191.908, 1733.795 190.834 C 1733.174 189.939, 1733.090 190.282, 1733.542 191.875 C 1733.999 193.491, 1733.860 194.032, 1733.107 193.566 C 1732.488 193.184, 1732 193.534, 1732 194.359 C 1732 195.172, 1731.703 196.610, 1731.341 197.555 C 1730.901 198.701, 1731.106 199.131, 1731.955 198.848 C 1733.227 198.424, 1736.680 190.637, 1737.602 186.115 C 1737.869 184.804, 1738.755 182.441, 1739.570 180.865 C 1740.951 178.195, 1740.888 176.754, 1739.490 179.016 M 1730.593 202.292 C 1731.003 203.585, 1730.838 204.018, 1730.107 203.566 C 1728.600 202.634, 1728.703 204.301, 1730.250 205.859 C 1731.252 206.868, 1731.177 206.996, 1729.873 206.500 C 1727.919 205.756, 1726.442 210.181, 1727.822 212.647 C 1728.618 214.069, 1728.761 214.065, 1729.320 212.609 C 1729.659 211.724, 1729.501 211, 1728.969 211 C 1728.436 211, 1728 210.564, 1728 210.031 C 1728 209.499, 1728.693 209.329, 1729.541 209.654 C 1730.388 209.979, 1731.010 209.853, 1730.922 209.373 C 1730.835 208.893, 1730.851 208.275, 1730.958 208 C 1731.065 207.725, 1731.296 206.768, 1731.470 205.874 C 1731.644 204.979, 1732.066 203.367, 1732.408 202.290 C 1732.840 200.930, 1732.563 200.333, 1731.500 200.333 C 1730.437 200.333, 1730.160 200.930, 1730.593 202.292 M 1727 216.059 C 1727 216.641, 1726.620 216.883, 1726.156 216.597 C 1724.981 215.870, 1723.080 222.513, 1723.680 225.250 C 1724.091 227.125, 1723.977 227.250, 1722.992 226 C 1721.973 224.705, 1721.887 224.735, 1722.362 226.218 C 1722.665 227.163, 1722.443 228.226, 1721.869 228.581 C 1721.295 228.936, 1721.048 230.076, 1721.320 231.114 C 1721.591 232.153, 1721.405 232.751, 1720.907 232.442 C 1720.408 232.134, 1720 232.359, 1720 232.941 C 1720 233.523, 1720.675 234, 1721.500 234 C 1722.325 234, 1723 233.325, 1723 232.500 C 1723 230.067, 1723.127 229.553, 1723.987 228.500 C 1725.385 226.790, 1728.447 215, 1727.494 215 C 1727.222 215, 1727 215.477, 1727 216.059 M 1719.672 236.278 C 1719.993 236.798, 1719.852 237.511, 1719.358 237.862 C 1717.725 239.022, 1716.042 243.947, 1716.697 245.652 C 1717.111 246.731, 1716.949 247.086, 1716.242 246.650 C 1713.632 245.037, 1713.617 253.629, 1716.224 256.770 C 1717.075 257.795, 1717.691 257.696, 1719.313 256.275 C 1721.268 254.563, 1721.314 254.570, 1720.614 256.476 C 1719.973 258.224, 1720.182 258.178, 1722.421 256.074 C 1723.970 254.619, 1724.875 252.760, 1724.753 251.284 C 1724.555 248.899, 1724.524 248.908, 1721.955 252.056 C 1719.582 254.963, 1719.167 255.121, 1717.178 253.879 C 1715.980 253.131, 1715 252.151, 1715 251.700 C 1715 251.250, 1715.450 251.160, 1716 251.500 C 1716.550 251.840, 1717 251.641, 1717 251.059 C 1717 250.477, 1716.438 249.993, 1715.750 249.985 C 1714.828 249.973, 1714.855 249.744, 1715.853 249.112 C 1717.150 248.290, 1721.356 240, 1720.476 240 C 1720.241 240, 1720.449 238.950, 1720.937 237.667 C 1721.598 235.927, 1721.476 235.333, 1720.456 235.333 C 1719.704 235.333, 1719.351 235.759, 1719.672 236.278 M 1729.734 241.250 C 1729.470 241.938, 1729.137 242.950, 1728.993 243.500 C 1728.849 244.050, 1727.870 245.103, 1726.818 245.840 C 1725.434 246.809, 1725.192 247.527, 1725.944 248.432 C 1726.515 249.121, 1726.874 249.872, 1726.741 250.103 C 1726.609 250.333, 1727.312 249.522, 1728.304 248.301 C 1729.297 247.079, 1730.152 245.724, 1730.205 245.290 C 1730.258 244.855, 1731.021 243.936, 1731.901 243.248 C 1733.307 242.146, 1733.259 242.065, 1731.500 242.579 C 1729.527 243.155, 1729.527 243.142, 1731.441 241.582 C 1733.028 240.289, 1733.093 240, 1731.798 240 C 1730.927 240, 1729.998 240.563, 1729.734 241.250 M 1106.388 594.979 C 1100.253 597.461, 1098.157 605.746, 1102.413 610.694 C 1104.417 613.023, 1105.620 613.500, 1109.495 613.500 C 1113.505 613.500, 1114.576 613.039, 1117.082 610.234 C 1120.958 605.896, 1120.956 601.803, 1117.077 597.923 C 1115.469 596.315, 1113.481 595, 1112.659 595 C 1111.836 595, 1110.564 594.803, 1109.832 594.563 C 1109.099 594.322, 1107.550 594.509, 1106.388 594.979 M 722.500 595.929 C 714.917 597.759, 709.890 603.259, 706.948 612.946 C 704.962 619.484, 704.657 619.903, 701.670 620.193 C 698.518 620.498, 698.498 620.535, 698.202 626.750 C 697.934 632.372, 698.100 633, 699.845 633 C 700.913 633, 702.006 633.573, 702.275 634.273 C 702.543 634.974, 701.473 643.186, 699.895 652.523 C 696.257 674.051, 696.253 674.760, 699.750 676.116 C 701.263 676.702, 704.506 677.254, 706.958 677.341 L 711.417 677.500 715.014 657.479 C 716.992 646.467, 718.909 636.680, 719.274 635.729 C 719.778 634.415, 721.116 634, 724.846 634 C 727.557 634, 730.217 633.440, 730.786 632.750 C 731.353 632.063, 731.970 629.025, 732.158 626 C 732.483 620.769, 732.378 620.486, 730 620.220 C 722.179 619.344, 720.879 617.030, 725.571 612.338 C 727.768 610.142, 728.717 609.859, 732.090 610.398 C 735.677 610.972, 736.128 610.794, 737.017 608.456 C 737.555 607.041, 738.273 604.142, 738.614 602.015 L 739.232 598.146 733.935 596.573 C 728.234 594.880, 727.107 594.817, 722.500 595.929 M 155.659 600.750 C 151.052 609.851, 139.722 668.506, 141.617 673.444 C 141.942 674.291, 144.493 675.663, 147.285 676.492 C 155.342 678.885, 155.722 678.730, 156.461 672.750 C 157.974 660.494, 162.515 637.283, 166.606 620.890 C 169.023 611.204, 171 602.784, 171 602.179 C 171 601.058, 162.106 598, 158.844 598 C 157.858 598, 156.425 599.237, 155.659 600.750 M 340.693 601.809 C 336.777 611.595, 328.447 651.703, 327.310 666.239 L 326.705 673.979 330.103 675.398 C 331.971 676.178, 335.167 677.129, 337.205 677.511 C 341.522 678.320, 340.848 680.052, 344.011 660 C 345.310 651.765, 346.824 645.525, 347.892 644 C 350.016 640.969, 358.889 634.799, 360.409 635.297 C 362.468 635.971, 362.104 641.775, 359.054 656.892 C 357.374 665.219, 356 672.391, 356 672.830 C 356 673.962, 362.134 676.747, 366.383 677.544 C 369.654 678.158, 370.060 677.973, 371.029 675.425 C 372.596 671.303, 378.984 639.037, 378.993 635.200 C 379.011 626.938, 369.329 617.843, 363 620.177 C 361.625 620.684, 358.082 623.439, 355.127 626.300 L 349.754 631.500 350.357 627.448 C 350.689 625.220, 352.302 618.736, 353.941 613.039 C 355.580 607.343, 356.714 602.346, 356.460 601.935 C 355.796 600.861, 347.049 598, 344.430 598 C 342.800 598, 341.816 599.003, 340.693 601.809 M 471.911 600.622 C 468.090 610.293, 459.614 651.203, 458.389 665.882 L 457.714 673.983 461.550 675.586 C 463.661 676.467, 466.852 677.426, 468.644 677.717 C 472.446 678.334, 471.737 680.456, 475.531 657.093 C 477.688 643.810, 484.119 615.533, 487.550 604.248 C 488.135 602.324, 487.671 601.760, 484.367 600.374 C 482.240 599.482, 478.823 598.526, 476.774 598.248 C 473.397 597.790, 472.942 598.013, 471.911 600.622 M 805.102 604.250 C 800.746 617.458, 794.099 650.524, 792.437 667.252 L 791.767 674.005 795.438 675.538 C 797.457 676.382, 800.757 677.169, 802.771 677.286 L 806.432 677.500 807.264 672 C 809.871 654.773, 813.722 635.422, 817.602 620.054 C 820.604 608.164, 821.682 602.282, 820.985 601.585 C 819.719 600.319, 812.264 598.036, 809.332 598.015 C 807.554 598.003, 806.792 599.126, 805.102 604.250 M 1067.309 600.216 C 1066.864 600.885, 1065.150 605.498, 1063.500 610.466 C 1060.585 619.245, 1060.407 619.509, 1057.200 619.817 C 1053.489 620.174, 1052 622.686, 1052 628.590 C 1052 631.360, 1052.498 632.239, 1054.500 633 C 1057.438 634.117, 1057.431 634.038, 1055.500 645 C 1052.748 660.624, 1054.128 667.393, 1061.361 673.744 C 1068.218 679.765, 1071.927 678.978, 1076.206 670.595 C 1078.013 667.055, 1078.048 666.606, 1076.584 665.787 C 1073.758 664.205, 1071.219 660.925, 1070.693 658.177 C 1070.189 655.539, 1070.955 649.402, 1073.056 639.250 L 1074.142 634 1079.871 634 C 1083.022 634, 1086.140 633.460, 1086.800 632.800 C 1087.460 632.140, 1088 628.990, 1088 625.800 L 1088 620 1084.122 620 C 1078.260 620, 1077.609 618.477, 1080.068 610.514 C 1081.216 606.797, 1081.783 603.421, 1081.328 603.011 C 1080.302 602.088, 1071.104 599, 1069.381 599 C 1068.686 599, 1067.754 599.547, 1067.309 600.216 M 424.081 601.085 C 415.084 602.250, 415 602.308, 415 607.380 C 415 609.823, 413.893 616.506, 412.541 622.231 C 407.456 643.752, 403.441 671.179, 404.975 673.921 C 405.840 675.465, 413.055 677.960, 416.731 677.985 C 419.237 678.002, 419.082 678.494, 421.455 663 C 422.554 655.818, 423.587 652.105, 424.722 651.250 C 425.681 650.528, 429.363 649.995, 433.441 649.989 C 437.324 649.983, 442.188 649.699, 444.250 649.358 C 447.993 648.739, 448 648.729, 448 643.803 C 448 635.185, 447.415 634.775, 436.278 635.593 L 426.686 636.297 427.294 631.399 C 427.628 628.704, 428.603 624.182, 429.460 621.348 L 431.019 616.196 442.760 615.548 C 449.217 615.192, 455.400 614.810, 456.500 614.700 C 458.275 614.523, 458.477 613.843, 458.298 608.660 C 458.187 605.448, 457.569 602.186, 456.925 601.410 C 455.594 599.806, 435.494 599.607, 424.081 601.085 M 35.997 603.003 C 33.730 605.270, 28.710 620.613, 26.674 631.500 C 21.961 656.701, 24.086 666.659, 35.756 674.060 C 44.671 679.714, 53.907 679.947, 61.372 674.706 C 71.618 667.514, 81 638.338, 81 613.669 L 81 605.077 75.818 603.539 C 70.170 601.861, 67.003 601.578, 66.995 602.750 C 66.992 603.163, 66.073 609.739, 64.954 617.363 C 61.379 641.716, 57.837 654.316, 52.874 660.337 C 50.180 663.605, 49.285 664.066, 46.156 663.803 C 40.887 663.361, 39.744 660.596, 40.449 650 C 41.082 640.475, 43.668 627.827, 47.660 614.718 C 49.477 608.754, 50.008 605.608, 49.316 604.916 C 48.756 604.356, 45.948 603.278, 43.077 602.520 C 38.262 601.250, 37.712 601.288, 35.997 603.003 M 863.230 603.115 C 857.529 605.937, 852.581 611.835, 847.929 621.354 C 837.854 641.968, 839.218 662.277, 851.272 671.121 C 861.392 678.547, 870.837 680.270, 878.795 676.142 C 884.067 673.407, 891 667.273, 891 665.344 C 891 663.706, 887.406 656.365, 886.264 655.671 C 885.844 655.416, 882.606 656.960, 879.069 659.103 C 865.972 667.038, 857.988 663.116, 857.877 648.691 C 857.809 639.768, 858.758 635.473, 862.588 627.372 C 866.482 619.135, 871.632 614, 876 614 C 880.196 614, 881.387 616.839, 880.688 625.177 L 880.116 632 885.808 631.985 C 888.939 631.976, 891.995 631.639, 892.600 631.235 C 894.292 630.105, 895.831 626.718, 896.978 621.598 C 897.820 617.841, 897.723 616.365, 896.475 613.951 C 893.320 607.851, 880.219 600.999, 871.712 601.001 C 869.396 601.001, 865.579 601.953, 863.230 603.115 M 91.507 621.242 C 89.899 628.031, 83.014 672.594, 83.413 673.633 C 84 675.163, 94.282 678.489, 96.177 677.762 C 97.080 677.416, 98.734 671.476, 100.881 660.864 C 104.441 643.265, 105.351 641.428, 112.775 636.833 C 119.908 632.418, 120.497 636.196, 116.046 657.798 C 114.425 665.662, 113.319 672.667, 113.586 673.364 C 114.106 674.718, 122.362 678.013, 125.215 678.005 C 127.806 677.997, 128.700 675.519, 131.984 659.240 C 136.106 638.807, 136.628 633.108, 134.712 629.438 C 132.744 625.668, 128.232 621.404, 124.865 620.132 C 121.430 618.835, 114.950 621.916, 111.183 626.638 C 107.706 630.995, 106.194 630.888, 105.810 626.257 C 105.461 622.045, 103.518 620.692, 96.271 619.613 C 92.455 619.045, 91.990 619.204, 91.507 621.242 M 187.459 620.833 C 182.176 623.294, 178.447 627.820, 174.248 636.871 C 168.685 648.859, 168.651 661.328, 174.158 669.182 C 175.193 670.657, 178.802 673.244, 182.179 674.932 C 190.514 679.097, 196.550 679.099, 203.800 674.942 C 206.715 673.270, 209.351 671.248, 209.658 670.449 C 210.369 668.595, 209.482 665.040, 207.699 662.603 C 206.372 660.788, 206.103 660.777, 201.478 662.353 C 198.819 663.259, 195.234 664, 193.510 664 C 189.389 664, 185.785 660.658, 186.193 657.213 C 186.486 654.728, 186.794 654.603, 193 654.447 C 203.616 654.178, 210.524 650.269, 214.110 642.500 C 218.010 634.051, 215.734 628.685, 206.108 623.626 C 197.437 619.069, 192.750 618.367, 187.459 620.833 M 240.147 620.094 C 238.303 620.653, 234.703 623.223, 232.147 625.805 C 222.999 635.047, 218.325 655.165, 222.916 665.542 C 226.524 673.699, 231.776 678, 238.130 678 C 240.685 678, 242.263 677.030, 245.680 673.361 C 248.056 670.810, 250 668.335, 250 667.861 C 250 667.388, 250.450 667, 251 667 C 251.550 667, 252 668.350, 252 670 C 252 674.089, 254.955 676.721, 260.474 677.548 C 263.014 677.929, 265.246 678.074, 265.433 677.870 C 265.621 677.667, 266.292 672.100, 266.925 665.500 C 267.913 655.198, 270.559 639.711, 272.589 632.346 C 273.075 630.585, 272.370 629.715, 268.731 627.582 C 257.489 620.994, 246.594 618.140, 240.147 620.094 M 292.500 620.573 C 285.413 624.258, 279.833 633.437, 279.833 641.409 C 279.833 648.099, 282.583 651.257, 292.652 656.131 C 301.756 660.537, 303.469 662.433, 300.412 664.721 C 297.884 666.614, 292.603 665.880, 285.565 662.658 L 279.995 660.108 278.498 663.005 C 275.819 668.184, 276.511 671.357, 280.850 673.795 C 286.374 676.900, 296.632 679.041, 301.500 678.106 C 310.870 676.306, 317.033 670.250, 317.681 662.208 C 318.186 655.948, 316.982 654.622, 305.764 649.078 C 297.394 644.942, 296.474 644.211, 296.228 641.500 C 295.686 635.524, 302.964 628.564, 306.283 631.883 C 306.908 632.508, 307.438 635.378, 307.460 638.260 C 307.500 643.476, 307.515 643.501, 310.888 643.824 C 316.487 644.358, 319.005 643.233, 320.566 639.497 C 323.660 632.091, 321.969 628.492, 313.291 624.013 C 309.118 621.860, 299.887 619.029, 297 619.018 C 296.175 619.015, 294.150 619.714, 292.500 620.573 M 505.147 620.094 C 503.303 620.653, 499.703 623.223, 497.147 625.805 C 487.999 635.047, 483.325 655.165, 487.916 665.542 C 491.524 673.699, 496.776 678, 503.130 678 C 505.685 678, 507.263 677.030, 510.680 673.361 C 513.056 670.810, 515 668.335, 515 667.861 C 515 667.388, 515.450 667, 516 667 C 516.550 667, 517 668.350, 517 670 C 517 674.089, 519.955 676.721, 525.474 677.548 C 528.014 677.929, 530.246 678.074, 530.433 677.870 C 530.621 677.667, 531.292 672.100, 531.925 665.500 C 532.913 655.198, 535.559 639.711, 537.589 632.346 C 538.075 630.585, 537.370 629.715, 533.731 627.582 C 522.489 620.994, 511.594 618.140, 505.147 620.094 M 549.250 619.717 C 548.298 620.060, 548 625.829, 548 643.948 C 548 671.724, 547.793 671.103, 558.494 675.387 C 567.330 678.924, 569.209 678.777, 572.971 674.250 C 579.181 666.779, 595.027 631.118, 593.687 627.628 C 592.980 625.785, 586.158 621.329, 582.724 620.467 C 580.406 619.885, 580.142 620.304, 577.542 628.677 C 573.525 641.614, 564.911 663, 563.717 663 C 563.018 663, 562.902 656.223, 563.358 642.048 L 564.031 621.096 560.765 620.602 C 553.739 619.539, 550.449 619.286, 549.250 619.717 M 614.206 620.609 C 604.826 625.403, 597.500 640.313, 597.554 654.500 C 597.589 663.737, 599.014 667.217, 604.673 671.882 C 609.389 675.769, 615.913 678, 622.565 678 C 633.046 678, 641.972 668.183, 645.475 652.803 C 649.167 636.590, 645.722 628.290, 632.914 622.542 C 625.231 619.094, 618.526 618.401, 614.206 620.609 M 660.598 619.841 C 659.812 621.113, 652 668.402, 652 671.887 C 652 674.679, 652.416 675.046, 657.182 676.461 C 660.031 677.308, 663.149 678, 664.111 678 C 665.975 678, 665.792 678.669, 670.106 656 C 671.309 649.675, 672.955 643.732, 673.764 642.792 C 674.572 641.853, 678.501 640.358, 682.495 639.469 L 689.756 637.854 690.440 630.910 C 691.144 623.769, 690.606 620, 688.883 620 C 686.973 620, 682.463 622.860, 679.563 625.911 C 675.917 629.746, 675 629.789, 675 626.122 C 675 622.463, 673.744 621.496, 667.201 620.117 C 660.864 618.781, 661.243 618.797, 660.598 619.841 M 907.598 619.841 C 906.812 621.113, 899 668.402, 899 671.887 C 899 674.679, 899.416 675.046, 904.182 676.461 C 907.031 677.308, 910.149 678, 911.111 678 C 912.975 678, 912.792 678.669, 917.106 656 C 918.309 649.675, 919.955 643.732, 920.764 642.792 C 921.572 641.853, 925.501 640.358, 929.495 639.469 L 936.756 637.854 937.440 630.910 C 938.144 623.769, 937.606 620, 935.883 620 C 933.973 620, 929.463 622.860, 926.563 625.911 C 922.917 629.746, 922 629.789, 922 626.122 C 922 622.463, 920.744 621.496, 914.201 620.117 C 907.864 618.781, 908.243 618.797, 907.598 619.841 M 958.900 620.937 C 949.186 626.217, 941.975 640.742, 942.022 654.932 C 942.059 666.144, 946.719 672.873, 956.944 676.480 C 965.308 679.431, 973.653 677.810, 979.750 672.048 C 982.446 669.501, 982.478 669.070, 980.315 664.534 C 978.375 660.467, 978.592 660.527, 973 662.500 C 968.096 664.230, 963.660 664.423, 961.039 663.021 C 958.993 661.926, 956.852 656.786, 957.852 655.370 C 958.208 654.866, 961.453 654.432, 965.063 654.406 C 976.213 654.326, 984.642 648.756, 987.030 639.889 C 989.111 632.162, 985.810 627.092, 975.680 622.454 C 967.906 618.894, 963.407 618.488, 958.900 620.937 M 1011.625 620.469 C 1001.185 624.190, 993 639.692, 993 655.742 C 993 662.885, 994.851 668.178, 998.803 672.339 C 1006.364 680.300, 1013.381 679.830, 1019.533 670.953 C 1022.904 666.088, 1024 665.971, 1024 670.477 C 1024 674.799, 1026.968 677.017, 1033.129 677.301 L 1037.454 677.500 1038.758 664.500 C 1039.475 657.350, 1041.103 646.849, 1042.375 641.165 C 1045.086 629.047, 1045.387 629.696, 1034.701 624.633 C 1022.582 618.892, 1018.245 618.109, 1011.625 620.469 M 1135.459 620.825 C 1131.044 622.890, 1126.941 627.236, 1124.044 632.914 C 1118.630 643.526, 1117.148 658.450, 1120.797 665.601 C 1123.385 670.671, 1125.327 672.345, 1132.360 675.565 C 1140.224 679.165, 1148.958 678.795, 1154.418 674.631 C 1161.603 669.150, 1166.924 657.484, 1167.756 645.387 C 1168.590 633.272, 1165.524 628.072, 1154.477 622.864 C 1146.334 619.024, 1140.617 618.412, 1135.459 620.825 M 1181.507 621.242 C 1179.899 628.031, 1173.014 672.594, 1173.413 673.633 C 1174 675.163, 1184.282 678.489, 1186.177 677.762 C 1187.080 677.416, 1188.734 671.476, 1190.881 660.864 C 1194.441 643.265, 1195.351 641.428, 1202.775 636.833 C 1209.908 632.418, 1210.497 636.196, 1206.046 657.798 C 1204.425 665.662, 1203.319 672.667, 1203.586 673.364 C 1204.106 674.718, 1212.362 678.013, 1215.215 678.005 C 1217.806 677.997, 1218.700 675.519, 1221.984 659.240 C 1226.106 638.807, 1226.628 633.108, 1224.712 629.438 C 1222.744 625.668, 1218.232 621.404, 1214.865 620.132 C 1211.430 618.835, 1204.950 621.916, 1201.183 626.638 C 1197.706 630.995, 1196.194 630.888, 1195.810 626.257 C 1195.461 622.045, 1193.518 620.692, 1186.271 619.613 C 1182.455 619.045, 1181.990 619.204, 1181.507 621.242 M 1245.826 621.212 C 1236.500 627.020, 1231.095 641.340, 1235.704 648.027 C 1238.226 651.687, 1239.770 652.776, 1247.776 656.547 C 1255.686 660.272, 1257.451 662.446, 1254.412 664.721 C 1251.877 666.619, 1246.599 665.879, 1239.505 662.631 L 1233.876 660.054 1232.438 663.495 C 1231.647 665.387, 1231 667.818, 1231 668.895 C 1231 675.569, 1252.246 680.969, 1261.023 676.526 C 1268.417 672.783, 1272 667.699, 1272 660.951 C 1272 655.535, 1268.678 652.367, 1259.034 648.583 C 1249.949 645.019, 1248.680 642.897, 1251.795 636.484 C 1253.249 633.493, 1254.775 631.844, 1256.488 631.414 C 1260.544 630.396, 1262.159 632.523, 1261.805 638.418 L 1261.500 643.500 1264.888 643.824 C 1270.870 644.395, 1272.988 643.281, 1275.132 638.436 C 1276.224 635.966, 1276.845 633.086, 1276.511 632.034 C 1274.928 627.048, 1263.939 620.966, 1253.961 619.555 C 1250.338 619.042, 1248.810 619.353, 1245.826 621.212 M 741.630 627.779 C 735.814 646.187, 734.434 661.034, 737.908 667.790 C 740.387 672.608, 744.869 676.815, 748.693 677.912 C 752.970 679.139, 757.407 676.743, 761.829 670.819 C 763.808 668.169, 765.781 666, 766.213 666 C 766.646 666, 767 667.380, 767 669.066 C 767 670.752, 767.441 672.955, 767.979 673.961 C 769.039 675.942, 773.926 678, 777.570 678 C 779.642 678, 779.898 677.410, 780.495 671.250 C 781.537 660.506, 784.893 640.235, 786.976 632.103 C 788.029 627.993, 788.671 624.276, 788.402 623.842 C 787.814 622.891, 778.367 620, 775.847 620 C 773.716 620, 771.007 628.137, 768.068 643.368 C 766.427 651.875, 765.705 653.713, 762.832 656.703 C 758.813 660.885, 754.369 663.356, 752.296 662.560 C 750.271 661.783, 751.112 654.595, 755.138 638.279 C 756.797 631.557, 757.885 625.624, 757.558 625.093 C 756.967 624.138, 746.771 620, 745.006 620 C 744.501 620, 742.981 623.501, 741.630 627.779 M 1099.156 621.750 C 1096.762 626.332, 1091.054 657.427, 1090.719 667.714 C 1090.509 674.144, 1090.615 674.480, 1093.266 675.774 C 1094.787 676.517, 1097.932 677.209, 1100.255 677.312 L 1104.478 677.500 1106.670 664.152 C 1107.876 656.811, 1110.018 645.290, 1111.431 638.550 C 1112.844 631.809, 1114 625.571, 1114 624.686 C 1114 623.613, 1112.275 622.565, 1108.818 621.539 C 1102.152 619.559, 1100.279 619.600, 1099.156 621.750 M 192.765 633.867 C 187.217 640.461, 186.674 646.769, 191.759 645.561 C 197.890 644.104, 202.515 637.391, 200.681 632.610 C 199.686 630.017, 195.437 630.691, 192.765 633.867 M 965.330 633.250 C 960.109 639.071, 958.390 644.445, 961.383 645.594 C 964.070 646.625, 969.920 643.236, 971.625 639.661 C 974.959 632.669, 970.200 627.821, 965.330 633.250 M 620.542 634.550 C 616.554 638.852, 613.734 647.509, 613.609 655.826 C 613.517 662, 613.805 663.377, 615.441 664.576 C 618.150 666.563, 619.402 666.374, 622.867 663.458 C 628.560 658.668, 632.885 640.859, 629.779 635 C 627.857 631.374, 623.673 631.170, 620.542 634.550 M 1142.287 634.250 C 1137.257 639.741, 1133.318 652.846, 1134.617 659.770 C 1135.466 664.295, 1138.825 666.493, 1142.402 664.863 C 1149.186 661.772, 1154.517 642.618, 1150.839 634.547 C 1149.349 631.275, 1145.146 631.129, 1142.287 634.250 M 243.429 635.671 C 240.023 639.347, 236.810 650.395, 237.193 657.117 C 237.478 662.116, 237.690 662.522, 240.171 662.809 C 242.201 663.043, 243.898 662.083, 247.240 658.809 C 251.412 654.721, 251.729 654.003, 253.414 644.808 C 254.391 639.478, 254.896 634.640, 254.536 634.058 C 254.176 633.476, 252.087 633, 249.893 633 C 246.855 633, 245.315 633.636, 243.429 635.671 M 508.429 635.671 C 505.023 639.347, 501.810 650.395, 502.193 657.117 C 502.478 662.116, 502.690 662.522, 505.171 662.809 C 507.201 663.043, 508.898 662.083, 512.240 658.809 C 516.412 654.721, 516.729 654.003, 518.414 644.808 C 519.391 639.478, 519.896 634.640, 519.536 634.058 C 519.176 633.476, 517.087 633, 514.893 633 C 511.855 633, 510.315 633.636, 508.429 635.671 M 1015.693 634.787 C 1011.579 639.332, 1007.954 652.756, 1008.816 660.250 C 1009.059 662.355, 1009.669 663, 1011.416 663 C 1013.562 663, 1021.067 658.318, 1022.413 656.140 C 1022.751 655.594, 1023.963 650.555, 1025.108 644.942 C 1027.441 633.503, 1027.279 633.042, 1020.905 633.015 C 1018.707 633.006, 1016.681 633.694, 1015.693 634.787" stroke="none" fill="#435400" fill-rule="evenodd"/><path d="M 220.226 372.004 C 217.076 373.924, 215.157 374, 169.726 374.006 C 141.097 374.009, 121.072 374.408, 118.873 375.018 C 111.178 377.156, 106.456 385.657, 109.102 392.609 C 111.391 398.623, 114.785 400.423, 124.922 401 L 133.710 401.500 127.169 418.750 L 120.627 436 114.564 436.006 C 106.266 436.013, 101.185 437.615, 97.376 441.424 C 88.860 449.940, 95.029 463, 107.567 463 C 110.067 463, 111.067 463.393, 110.747 464.250 C 110.490 464.938, 106.789 475.175, 102.523 487 C 98.257 498.825, 94.082 509.850, 93.245 511.500 C 87.676 522.485, 79.991 528, 70.254 528 C 60.355 528, 54.003 522.402, 53.996 513.673 C 53.988 502.324, 43.651 494.863, 32.204 497.945 C 24.165 500.110, 19.385 508.744, 20.251 519.534 C 21.648 536.944, 36.988 552.163, 57.500 556.489 C 66.348 558.355, 72.652 558.355, 81.500 556.489 C 103.781 551.790, 116.972 537.154, 128.354 504.500 C 130.846 497.350, 135.161 485.219, 137.943 477.541 C 140.724 469.864, 143 463.451, 143 463.291 C 143 463.131, 147.180 463, 152.288 463 C 159.949 463, 162.348 462.606, 165.980 460.750 C 171.980 457.684, 174.167 454.412, 174.167 448.500 C 174.167 439.949, 169.495 436.039, 159.250 436.015 C 155.813 436.007, 153.024 435.663, 153.053 435.250 C 153.082 434.837, 155.704 427.075, 158.880 418 L 164.655 401.500 184.828 401.229 C 195.922 401.080, 205 401.158, 205 401.403 C 205 401.647, 195.939 427.644, 184.864 459.173 C 166.028 512.796, 164.696 517.053, 164.251 525.052 C 163.643 535.956, 165.931 541.955, 173.184 548.476 C 185.790 559.810, 205.542 560.815, 223.657 551.044 C 230.726 547.230, 230.870 547.199, 232.598 549.109 C 233.564 550.176, 237.303 552.501, 240.906 554.275 C 246.710 557.132, 248.374 557.491, 255.479 557.420 C 264.563 557.330, 271.403 555.131, 279.378 549.736 L 284.255 546.436 287.378 549.372 C 294.363 555.942, 308.075 559.123, 320.852 557.139 C 328.385 555.969, 338.331 552.036, 344.043 547.969 L 346.959 545.893 350.640 549.574 C 356.282 555.215, 362.059 557.395, 371.500 557.443 C 386.004 557.516, 392.881 552.692, 413.254 528.154 L 416.007 524.838 420.033 528.026 C 426.764 533.357, 433.172 535.312, 444.241 535.412 L 453.982 535.500 457.475 540.687 C 461.596 546.806, 465.487 549.960, 473.361 553.565 C 493.783 562.915, 522.199 556.095, 533.046 539.241 C 534.417 537.111, 534.886 537.029, 541.230 537.810 C 547.652 538.600, 557.162 538.035, 561.701 536.595 C 563.466 536.035, 564.006 536.489, 564.939 539.316 C 567.857 548.156, 579.860 556.422, 591.515 557.618 C 602.061 558.701, 612.058 555.198, 621.783 547.011 L 626.066 543.406 630.342 547.503 C 646.373 562.863, 674.059 560.674, 691.935 542.633 C 703.715 530.743, 709.413 520.290, 720.490 490.250 C 724.900 478.290, 727.710 472, 728.642 472 C 730.735 472, 737.163 474.837, 739.157 476.642 C 742.751 479.895, 742.333 482.954, 735.886 500.572 C 730.083 516.430, 729.685 518.069, 729.597 526.500 C 729.514 534.456, 729.818 536.096, 732.212 540.638 C 735.493 546.863, 742.894 553.424, 749 555.521 C 771.343 563.196, 794.564 550.355, 809.960 521.811 C 815.596 511.364, 820 500.259, 820 496.499 C 820 488.193, 806.526 483.149, 798.459 488.435 C 797.062 489.350, 793.274 495.841, 789.001 504.637 C 782.899 517.199, 780.951 520.235, 775.467 525.718 C 769.586 531.599, 768.752 532.099, 765.299 531.812 C 762.194 531.555, 761.363 531.004, 760.543 528.659 C 759.723 526.313, 760.215 523.958, 763.366 515.159 C 765.466 509.296, 769.033 499.325, 771.293 493 C 778.177 473.741, 776.917 464.216, 766.284 455.123 C 761.156 450.737, 752.261 445.987, 743.777 443.103 L 738.531 441.320 738.427 436.282 C 738.236 427.057, 732.870 420.388, 723.638 417.903 C 716.038 415.856, 707.981 419.774, 703.254 427.815 C 699.499 434.202, 699.309 445.172, 702.834 452.062 L 705.167 456.625 698.656 474.062 C 686.945 505.427, 683.299 513.199, 676.219 521.884 C 668.495 531.361, 657.111 535.152, 653.397 529.483 C 651.793 527.035, 652.129 525.899, 665.599 488.233 C 675.476 460.614, 679.458 448.209, 679.475 445 C 679.553 430.868, 660.556 425.882, 651.645 437.695 C 650.687 438.965, 644.306 455.640, 637.464 474.752 C 630.622 493.863, 624.280 510.850, 623.370 512.500 C 617.386 523.359, 607.673 532, 601.451 532 C 597.388 532, 595.541 529.785, 595.738 525.146 C 595.824 523.141, 601.542 505.381, 608.447 485.681 C 616.988 461.309, 621 448.493, 621 445.579 C 621 434.983, 608.571 427.551, 599.069 432.464 C 593.334 435.430, 591.520 439.203, 580.962 470.131 C 570.741 500.072, 570.528 500.565, 565.843 505.140 C 560.868 509.999, 554.196 513, 548.367 513 C 545.436 513, 545.024 512.644, 544.456 509.615 C 543.936 506.844, 544.369 505.473, 546.847 502.053 C 548.511 499.756, 551.014 494.866, 552.410 491.188 C 560.554 469.723, 559.651 455.367, 549.446 444.072 C 531.263 423.945, 491.835 427.718, 475.712 451.128 C 473.169 454.820, 469.266 464.179, 463.254 481.002 L 454.500 505.500 449.742 507.860 C 440.859 512.266, 433 508.298, 433 499.406 C 433 495.448, 434.230 492.457, 440.936 480.111 C 452.304 459.183, 454.765 450.578, 451.864 441.899 C 449.239 434.045, 442.691 430.387, 432.854 431.280 C 421.876 432.275, 412.067 440.771, 404.990 455.415 C 398.533 468.777, 396.323 483.456, 399.107 494.509 L 400.213 498.903 393.553 509.068 C 386.620 519.649, 377.650 530, 375.414 530 C 374.701 530, 373.842 529.553, 373.505 529.008 C 373.167 528.462, 377.008 510.574, 382.040 489.258 C 387.072 467.941, 391.199 448.441, 391.210 445.923 C 391.280 430.472, 372.923 425.341, 362.860 438 C 360.509 440.958, 359.155 445.606, 354.123 468.004 C 346.464 502.091, 342.764 511.930, 333.563 522.662 C 329.282 527.656, 321.031 532, 315.827 532 C 311.040 532, 308.463 528.720, 309.509 523.960 C 309.886 522.243, 315.837 504.562, 322.734 484.669 C 329.631 464.776, 335.462 446.475, 335.693 444 C 336.488 435.456, 329.833 429.011, 320.210 429.004 C 314.380 429, 307.730 431.768, 306.056 434.896 C 305.080 436.719, 304.825 436.694, 298.772 434.170 C 293.321 431.897, 291.060 431.551, 281.500 431.527 C 271.573 431.503, 269.931 431.767, 264.664 434.234 C 256.591 438.016, 252.045 441.886, 248.317 448.151 C 246.566 451.093, 240.083 468.043, 233.909 485.818 C 223.504 515.774, 222.365 518.490, 218.320 522.989 C 213.343 528.525, 206.987 532, 201.839 532 C 197.923 532, 195 529.567, 195 526.306 C 195 525.185, 205.421 494.171, 218.158 457.384 C 242.844 386.088, 243.873 382.303, 240.173 376.420 C 236.340 370.324, 226.539 368.155, 220.226 372.004 M 1181.324 371.612 C 1179.577 372.473, 1177.022 374.880, 1175.645 376.960 C 1174.269 379.039, 1164.263 406.112, 1153.410 437.121 C 1142.557 468.129, 1133.076 494.946, 1132.341 496.713 C 1128.958 504.844, 1119.568 511.776, 1110.698 512.692 L 1105.302 513.249 1104.689 509.473 C 1104.186 506.370, 1104.521 505.169, 1106.575 502.728 C 1113.469 494.535, 1119.535 472.344, 1117.839 461.525 C 1113.740 435.389, 1082.433 423.125, 1053.557 436.345 C 1046.687 439.490, 1037.247 448.293, 1033.643 454.915 C 1032.172 457.617, 1026.831 471.454, 1021.774 485.664 C 1012.679 511.219, 1012.579 511.603, 1012.540 521 C 1012.505 529.239, 1012.852 531.251, 1015.151 536.155 C 1024.548 556.199, 1054.267 563.987, 1077.609 552.522 C 1084.081 549.343, 1091.023 543.355, 1093.624 538.707 C 1094.435 537.259, 1095.495 537.137, 1101.263 537.831 C 1107.480 538.580, 1115.258 538.094, 1122.521 536.503 C 1125.269 535.901, 1125.650 536.142, 1126.748 539.171 C 1129.832 547.679, 1140.044 554.853, 1152.280 557.107 C 1163.725 559.216, 1177.596 555.941, 1189.118 548.408 C 1191.650 546.753, 1191.847 546.780, 1195.118 549.234 C 1210.479 560.758, 1231.363 560.687, 1248.673 549.051 L 1254.318 545.256 1258.465 548.421 C 1268.309 555.936, 1281.514 559.098, 1295.329 557.250 C 1308.850 555.441, 1320.820 548.881, 1326.053 540.414 C 1328.117 537.075, 1328.518 536.875, 1331.885 537.512 C 1333.873 537.888, 1338.875 538.174, 1343 538.147 C 1363.467 538.016, 1381.728 525.415, 1391.612 504.602 C 1398.718 489.638, 1395.280 478.992, 1383.346 479.004 C 1376.823 479.010, 1373.491 481.927, 1368.851 491.694 C 1362.327 505.427, 1352.913 513, 1342.367 513 C 1339.436 513, 1339.024 512.644, 1338.456 509.615 C 1337.936 506.844, 1338.369 505.473, 1340.847 502.053 C 1347.200 493.282, 1352.470 475.190, 1351.779 464.520 C 1351.022 452.832, 1345.111 443.079, 1335.298 437.329 C 1313.021 424.273, 1280.306 432.351, 1267.770 454.003 C 1266.338 456.476, 1260.839 470.875, 1255.551 486 C 1250.262 501.125, 1245.387 514.593, 1244.718 515.929 C 1242.880 519.596, 1234.084 528.905, 1230.904 530.550 C 1229.361 531.347, 1226.277 532, 1224.050 532 C 1219.073 532, 1216 529.298, 1216 524.923 C 1216 523.230, 1221.689 505.603, 1228.642 485.751 C 1235.595 465.900, 1241.473 447.822, 1241.703 445.579 C 1242.511 437.703, 1236.080 431, 1227.716 431 C 1223.186 431, 1219.465 432.779, 1215.872 436.661 C 1212.080 440.758, 1212.112 440.679, 1199.457 477.168 C 1193.099 495.501, 1186.719 512.510, 1185.279 514.967 C 1181.827 520.858, 1173.856 528.744, 1169.526 530.553 C 1162.095 533.658, 1156 531.685, 1156 526.175 C 1156 524.700, 1166.372 493.570, 1179.049 456.997 C 1191.725 420.424, 1202.359 388.174, 1202.680 385.331 C 1203.155 381.119, 1202.866 379.519, 1201.116 376.687 C 1197.294 370.504, 1188.266 368.188, 1181.324 371.612 M 964.421 375.896 C 958.688 378.501, 956 382.263, 956 387.685 C 956 397.359, 960.806 401, 973.575 401 C 980.447 401, 981.145 401.176, 980.522 402.750 C 980.141 403.712, 977.428 410.800, 974.492 418.500 C 971.556 426.200, 968.846 433.288, 968.470 434.250 C 967.922 435.652, 966.563 436.001, 961.643 436.006 C 953.224 436.013, 948.192 437.608, 944.297 441.503 C 941.453 444.347, 941 445.482, 941 449.765 C 941 457.549, 946.753 463, 954.968 463 C 956.636 463, 958 463.302, 958 463.671 C 958 465.187, 942.577 506.919, 940.139 511.999 C 935.061 522.581, 927.259 528, 917.102 528 C 908.525 528, 900.384 521.653, 901.264 515.653 C 902.800 505.190, 892.318 495.404, 881.708 497.395 C 868.425 499.887, 863.379 515.529, 870.766 531.315 C 876.680 543.951, 889.141 553.250, 904.500 556.489 C 913.348 558.355, 919.652 558.355, 928.500 556.489 C 942.290 553.581, 953.018 546.439, 961.546 534.487 C 967.443 526.224, 969.885 520.555, 981.037 489.250 L 990.388 463 999.045 463 C 1008.911 463, 1013.312 461.830, 1017.272 458.155 C 1021.541 454.195, 1022.687 449.087, 1020.558 443.512 C 1018.331 437.682, 1015.171 436, 1006.443 436 C 1000.512 436, 999.860 435.809, 1000.462 434.250 C 1000.833 433.288, 1003.325 426.200, 1006 418.500 C 1008.675 410.800, 1011.167 403.712, 1011.538 402.750 C 1012.158 401.144, 1014.410 401, 1038.857 400.994 C 1055.111 400.991, 1067.041 400.561, 1069.453 399.891 C 1071.627 399.288, 1074.890 397.310, 1076.703 395.497 C 1079.487 392.713, 1080 391.476, 1080 387.550 C 1080 384.993, 1079.317 381.581, 1078.483 379.967 C 1075.358 373.924, 1076.083 373.998, 1019.800 374.022 C 972.024 374.042, 968.220 374.171, 964.421 375.896 M 1239.684 376.449 C 1234.701 378.226, 1232.132 380.598, 1229.881 385.500 C 1226.047 393.848, 1228.864 403.078, 1236.634 407.632 C 1240.383 409.828, 1241.978 410.170, 1246.854 409.817 C 1253.773 409.316, 1258.156 406.575, 1261.023 400.956 C 1266.119 390.966, 1260.938 379.021, 1250.219 376.044 C 1245.508 374.736, 1244.364 374.780, 1239.684 376.449 M 510.914 456.956 C 506.835 458.192, 503.199 460.939, 501.120 464.353 C 500.067 466.084, 495.334 478.651, 490.603 492.281 C 480.768 520.610, 480.192 524.345, 484.923 529.077 C 487.323 531.477, 488.686 532, 492.537 532 C 498.430 532, 504.211 528.881, 506.624 524.399 C 508.374 521.149, 508.367 521.019, 506.325 518.786 C 495.404 506.847, 502.412 487.492, 518.488 485.192 C 523.909 484.417, 523.727 484.715, 526.489 472.089 C 527.679 466.651, 527.684 465.180, 526.525 462.405 C 524.294 457.066, 517.907 454.836, 510.914 456.956 M 1069.500 457.896 C 1062.146 461.301, 1060.761 463.798, 1051.415 490.500 C 1041.223 519.618, 1040.334 525.305, 1045.306 529.585 C 1050.922 534.419, 1061.973 532.021, 1066.651 524.951 L 1069.124 521.215 1066.507 518.598 C 1060.540 512.631, 1059.488 504.428, 1063.623 496.129 C 1066.758 489.838, 1071.802 486.149, 1078.595 485.177 L 1083.383 484.492 1085.123 478.631 C 1088.958 465.712, 1088.477 461.480, 1082.775 458.004 C 1078.712 455.527, 1074.687 455.494, 1069.500 457.896 M 1304.914 456.956 C 1300.835 458.192, 1297.199 460.939, 1295.120 464.353 C 1294.067 466.084, 1289.334 478.651, 1284.603 492.281 C 1274.768 520.610, 1274.192 524.345, 1278.923 529.077 C 1281.323 531.477, 1282.686 532, 1286.537 532 C 1292.430 532, 1298.211 528.881, 1300.624 524.399 C 1302.374 521.149, 1302.367 521.019, 1300.325 518.786 C 1289.404 506.847, 1296.412 487.492, 1312.488 485.192 C 1317.909 484.417, 1317.727 484.715, 1320.489 472.089 C 1321.679 466.651, 1321.684 465.180, 1320.525 462.405 C 1318.294 457.066, 1311.907 454.836, 1304.914 456.956 M 279.784 459.554 C 278.290 460.365, 275.965 462.935, 274.616 465.264 C 271.314 470.971, 256 519.468, 256 524.220 C 256 536.082, 271.366 533.830, 277.979 521 C 280.109 516.867, 292.625 478.150, 293.555 472.815 C 294.382 468.078, 292.550 462.578, 289.293 460.016 C 286.285 457.650, 283.538 457.517, 279.784 459.554 M 1690.486 703.250 L 1677.500 716.500 1690.750 703.514 C 1698.037 696.372, 1704 690.410, 1704 690.264 C 1704 689.547, 1702.548 690.942, 1690.486 703.250 M 1120.750 971.737 C 1123.638 971.939, 1128.362 971.939, 1131.250 971.737 C 1134.138 971.535, 1131.775 971.370, 1126 971.370 C 1120.225 971.370, 1117.862 971.535, 1120.750 971.737" stroke="none" fill="#705818" fill-rule="evenodd"/><path d="M 1624 278.433 C 1590.681 292.102, 1567.595 315.880, 1546.254 358.509 C 1535.586 379.819, 1528.082 398.119, 1507.505 453 C 1484.648 513.961, 1465.840 555.186, 1443.177 594 C 1368.731 721.504, 1250.232 811.317, 1074.098 873.732 C 1062.219 877.941, 1052.341 881.495, 1052.147 881.629 C 1051.745 881.906, 1055.992 895, 1056.484 895 C 1056.661 895, 1064.386 892.350, 1073.652 889.111 C 1251.058 827.101, 1371.906 737.894, 1449.056 612 C 1475.154 569.412, 1494.340 528.213, 1521.005 457.500 C 1542.146 401.436, 1548.372 386.172, 1557.870 367.129 C 1579.705 323.353, 1601.213 301.622, 1634.702 289.503 C 1635.007 289.392, 1630.514 277.180, 1629.971 276.643 C 1629.712 276.387, 1627.025 277.192, 1624 278.433" stroke="none" fill="#ff7070" fill-rule="evenodd"/><path d="M 1613 225.717 C 1606.879 227.998, 1593.737 234.731, 1586.812 239.134 C 1543.127 266.908, 1505.139 316.786, 1454.008 413.500 C 1451.100 419, 1447.264 426.200, 1445.483 429.500 C 1442.140 435.692, 1437.573 444.379, 1424.979 468.500 C 1409.273 498.580, 1388.955 535.926, 1378.191 554.500 C 1313.237 666.576, 1251.236 736.146, 1175.982 781.393 C 1131.630 808.061, 1089.109 823.751, 1031 834.892 C 1012.120 838.511, 969.946 841.964, 944.500 841.974 C 925.131 841.981, 886.887 839.566, 866.500 837.050 C 850.517 835.077, 826.609 831.528, 822.129 830.464 C 820.427 830.060, 823.567 834.076, 833.263 844.701 C 895.292 912.676, 969.135 952.342, 1060 966.494 C 1099.508 972.647, 1155.513 972.468, 1200.500 966.044 C 1353.870 944.142, 1519.662 859.809, 1660.500 732.057 C 1672.385 721.277, 1716.773 676.252, 1726.678 664.930 C 1777.786 606.512, 1812.474 553.695, 1835.327 499.500 C 1857.425 447.096, 1864.722 396.023, 1855.882 355.626 C 1854.022 347.127, 1853.724 346.557, 1848.833 342.160 C 1846.024 339.634, 1840.153 332.940, 1835.787 327.284 C 1831.420 321.628, 1827.685 317, 1827.487 317 C 1827.289 317, 1829.089 321.163, 1831.487 326.250 C 1862.397 391.823, 1842.395 481.057, 1774.271 581.500 C 1691.463 703.594, 1548.141 821.865, 1399.939 890.402 C 1318.505 928.063, 1242.275 949.418, 1165.500 956.080 C 1148.445 957.560, 1105.924 957.555, 1089.500 956.070 C 1008.239 948.726, 939.389 920.925, 881.511 872.085 C 870.722 862.980, 857.811 850.856, 858.341 850.326 C 858.551 850.116, 864.297 850.610, 871.111 851.424 C 908.101 855.840, 960.132 856.781, 993.139 853.630 C 1143.998 839.227, 1255.330 767.771, 1351.687 623.500 C 1379.648 581.635, 1398.596 548.388, 1448.004 454.500 C 1483.241 387.542, 1495.359 366.117, 1514.579 336.796 C 1553.851 276.886, 1591.048 244.448, 1632.246 234.181 C 1635.957 233.257, 1638.994 232.195, 1638.996 231.822 C 1638.998 231.449, 1636.498 230.208, 1633.440 229.063 C 1623.804 225.458, 1616.780 224.308, 1613 225.717" stroke="none" fill="#6a0202" fill-rule="evenodd"/><path d="M 1819 106 C 1817.625 106.440, 1817.138 106.845, 1817.917 106.900 C 1820.333 107.070, 1818.570 107.920, 1814.442 108.575 C 1812.274 108.919, 1809.713 109.621, 1808.750 110.135 C 1807.652 110.722, 1807 110.714, 1807 110.115 C 1807 109.589, 1808.382 108.855, 1810.072 108.484 C 1811.761 108.113, 1812.916 107.583, 1812.639 107.305 C 1811.679 106.346, 1804.972 109.146, 1805.640 110.226 C 1806.081 110.940, 1805.342 111.069, 1803.399 110.615 C 1801.489 110.170, 1800.973 110.254, 1801.886 110.863 C 1802.925 111.555, 1802.080 112.314, 1798.509 113.893 C 1795.889 115.052, 1793.218 116, 1792.573 116 C 1791.928 116, 1790.794 116.563, 1790.053 117.250 C 1788.955 118.269, 1788.816 118.186, 1789.302 116.801 C 1789.706 115.650, 1789.470 115.266, 1788.570 115.611 C 1787.840 115.892, 1787.300 116.656, 1787.371 117.310 C 1787.442 117.965, 1787.163 118.613, 1786.751 118.751 C 1786.339 118.890, 1783.252 121.027, 1779.891 123.501 C 1773.804 127.983, 1770.615 129.373, 1772.991 126.511 C 1773.671 125.692, 1774.595 125.250, 1775.045 125.528 C 1775.495 125.806, 1776.456 125.197, 1777.182 124.175 C 1777.907 123.152, 1779.175 122.055, 1780 121.737 C 1781.225 121.264, 1781.190 121.143, 1779.807 121.079 C 1778.875 121.036, 1777.485 121.897, 1776.717 122.994 C 1775.949 124.090, 1775.075 124.741, 1774.774 124.441 C 1774.474 124.141, 1773.381 124.971, 1772.347 126.286 C 1771.312 127.602, 1769.798 128.981, 1768.983 129.350 C 1768.167 129.720, 1768.564 129.821, 1769.864 129.575 L 1772.229 129.127 1769.940 131.564 C 1767.724 133.923, 1764.239 135.040, 1765.510 132.984 C 1765.856 132.425, 1766.526 132.207, 1767 132.500 C 1767.474 132.793, 1768.120 132.615, 1768.436 132.104 C 1769.103 131.024, 1767.091 131.187, 1765.201 132.367 C 1764.295 132.933, 1764.212 133.551, 1764.928 134.413 C 1766.010 135.717, 1764.534 138, 1762.609 138 C 1762.064 138, 1762.491 137.300, 1763.559 136.445 C 1765.418 134.955, 1765.404 134.936, 1763.222 135.995 C 1761.969 136.603, 1761.129 137.415, 1761.355 137.800 C 1762.062 139.006, 1760.125 143, 1758.832 143 C 1757.874 143, 1757.867 142.733, 1758.800 141.800 C 1759.460 141.140, 1760 140.208, 1760 139.729 C 1760 139.249, 1759.280 139.577, 1758.401 140.456 C 1757.229 141.628, 1757.089 142.403, 1757.877 143.352 C 1759.030 144.741, 1757.574 147.014, 1755.550 146.985 C 1754.973 146.976, 1755.175 146.533, 1756 146 C 1756.901 145.418, 1757.025 145.025, 1756.309 145.015 C 1754.656 144.994, 1753.746 146.725, 1755.002 147.501 C 1755.665 147.911, 1755.402 149.104, 1754.268 150.824 C 1751.171 155.526, 1750.107 157.403, 1748.144 161.621 C 1746.154 165.897, 1742.986 169.098, 1744.389 165.414 C 1744.961 163.914, 1744.855 163.761, 1743.902 164.708 C 1742.985 165.617, 1742.967 166.255, 1743.827 167.291 C 1744.686 168.326, 1744.663 169.326, 1743.734 171.326 C 1742.435 174.125, 1740.358 175.116, 1741.382 172.448 C 1741.724 171.555, 1741.556 171.156, 1740.985 171.509 C 1740.439 171.847, 1740.253 173.159, 1740.571 174.426 C 1740.963 175.989, 1740.643 176.923, 1739.574 177.333 C 1738.708 177.665, 1738 178.456, 1738 179.091 C 1738 179.875, 1738.531 179.805, 1739.655 178.872 C 1741.191 177.598, 1741.194 177.722, 1739.699 180.615 C 1738.813 182.329, 1737.869 184.804, 1737.602 186.115 C 1736.731 190.387, 1733.257 198.414, 1732.115 198.795 C 1731.502 198.999, 1731 199.606, 1731 200.142 C 1731 200.679, 1731.498 200.810, 1732.107 200.434 C 1732.861 199.968, 1732.987 200.467, 1732.501 201.998 C 1732.108 203.235, 1731.644 204.979, 1731.470 205.874 C 1731.296 206.768, 1731.065 207.725, 1730.958 208 C 1730.851 208.275, 1730.835 208.893, 1730.922 209.373 C 1731.010 209.853, 1730.388 209.979, 1729.541 209.654 C 1728.693 209.329, 1728 209.499, 1728 210.031 C 1728 210.564, 1728.436 211, 1728.969 211 C 1729.501 211, 1729.664 211.713, 1729.329 212.584 C 1728.882 213.750, 1728.524 213.847, 1727.970 212.952 C 1727.457 212.121, 1726.994 212.443, 1726.510 213.969 C 1726.120 215.197, 1726.234 216.634, 1726.762 217.162 C 1727.623 218.023, 1726.609 222.486, 1724.301 228 C 1723.461 230.005, 1723.273 230.726, 1723.125 232.500 C 1723.056 233.325, 1722.373 234, 1721.607 234 C 1720.841 234, 1719.941 234.712, 1719.607 235.582 C 1718.604 238.197, 1718.914 238.493, 1720.506 236.441 C 1721.915 234.625, 1721.949 234.676, 1721.031 237.250 C 1720.491 238.762, 1720.241 240, 1720.476 240 C 1721.356 240, 1717.150 248.290, 1715.853 249.112 C 1714.855 249.744, 1714.828 249.973, 1715.750 249.985 C 1716.438 249.993, 1717 250.477, 1717 251.059 C 1717 251.641, 1716.550 251.840, 1716 251.500 C 1715.450 251.160, 1715 251.282, 1715 251.772 C 1715 252.262, 1716.110 253.256, 1717.466 253.982 C 1718.822 254.708, 1719.682 255.705, 1719.377 256.199 C 1719.071 256.693, 1718.075 256.538, 1717.161 255.853 C 1715.615 254.696, 1715.615 254.735, 1717.154 256.423 C 1718.893 258.329, 1721.478 257.687, 1720.658 255.552 C 1720.395 254.867, 1721.297 253, 1722.663 251.403 C 1724.028 249.806, 1724.880 249.031, 1724.556 249.681 C 1724.232 250.330, 1724.378 251.115, 1724.879 251.425 C 1725.380 251.735, 1726.043 251.331, 1726.352 250.526 C 1726.660 249.722, 1726.460 248.785, 1725.908 248.443 C 1724.734 247.718, 1726.633 245, 1728.314 245 C 1728.901 245, 1728.509 245.661, 1727.441 246.468 C 1726.374 247.276, 1725.993 247.951, 1726.595 247.968 C 1727.197 247.986, 1728.464 247.145, 1729.410 246.099 C 1730.703 244.671, 1730.827 244.011, 1729.911 243.445 C 1729.080 242.932, 1728.949 243.109, 1729.500 244 C 1730.030 244.858, 1729.918 245.067, 1729.175 244.608 C 1727.680 243.684, 1729.885 240, 1731.932 240 C 1732.990 240, 1732.857 240.423, 1731.441 241.563 C 1730.170 242.586, 1730.018 242.990, 1731 242.734 C 1731.825 242.518, 1732.950 241.478, 1733.500 240.421 C 1734.050 239.364, 1734.937 237.825, 1735.469 237 C 1736.002 236.175, 1736.316 234.553, 1736.167 233.395 C 1736.012 232.201, 1737.431 229.279, 1739.447 226.637 C 1741.401 224.077, 1743 221.721, 1743 221.401 C 1743 219.595, 1748.692 213.101, 1749.891 213.539 C 1751.068 213.967, 1751.073 213.793, 1749.924 212.408 C 1748.749 210.992, 1748.901 210.482, 1751.048 208.635 C 1752.413 207.461, 1753.590 206.275, 1753.662 206 C 1754.463 202.963, 1757.698 198, 1758.876 198 C 1760.031 198, 1759.929 198.363, 1758.441 199.555 C 1756.594 201.035, 1756.614 201.055, 1758.857 199.963 C 1760.496 199.164, 1760.896 198.496, 1760.170 197.770 C 1758.614 196.214, 1766.914 184.684, 1768.590 186.074 C 1769.387 186.736, 1770.036 186.751, 1770.427 186.118 C 1770.760 185.579, 1770.521 184.822, 1769.897 184.436 C 1769.163 183.983, 1770.064 182.540, 1772.436 180.367 C 1774.457 178.515, 1776.424 177.018, 1776.806 177.041 C 1777.188 177.063, 1775.942 178.413, 1774.038 180.041 C 1772.134 181.668, 1771.037 183, 1771.601 183 C 1772.725 183, 1778.254 177.548, 1778.098 176.593 C 1778.044 176.267, 1778.189 176.113, 1778.419 176.250 C 1779.319 176.786, 1784.284 171.322, 1785.849 168.072 C 1786.757 166.187, 1788.107 164.447, 1788.849 164.206 C 1789.841 163.883, 1789.743 164.528, 1788.481 166.634 L 1786.763 169.500 1788.859 167 C 1790.012 165.625, 1790.966 164.893, 1790.978 165.372 C 1790.990 165.852, 1791.695 165.668, 1792.546 164.962 C 1793.396 164.257, 1793.822 162.978, 1793.493 162.120 C 1793.164 161.263, 1793.219 160.886, 1793.616 161.283 C 1794.013 161.680, 1795.162 161.259, 1796.169 160.347 C 1798.215 158.495, 1798.704 159.841, 1796.750 161.947 C 1795.745 163.029, 1795.757 163.147, 1796.812 162.550 C 1797.533 162.140, 1798.497 160.824, 1798.953 159.624 C 1799.410 158.423, 1800.740 157.370, 1801.913 157.282 C 1803.161 157.188, 1803.777 157.551, 1803.401 158.160 C 1803.002 158.807, 1803.561 158.770, 1804.879 158.065 C 1806.046 157.440, 1807 156.694, 1807 156.406 C 1807 156.118, 1806.581 156.141, 1806.069 156.457 C 1805.557 156.774, 1804.856 156.575, 1804.510 156.016 C 1804.165 155.457, 1804.696 154.994, 1805.691 154.986 C 1806.686 154.979, 1808.625 154.715, 1810 154.400 C 1812.053 153.929, 1812.232 154.038, 1811 155.008 C 1809.722 156.014, 1809.771 156.101, 1811.332 155.594 C 1812.339 155.267, 1813.689 154.993, 1814.332 154.985 C 1815.081 154.975, 1815.014 154.661, 1814.143 154.110 C 1813.040 153.411, 1813.029 153.100, 1814.084 152.448 C 1814.845 151.978, 1815.544 152.133, 1815.774 152.823 C 1815.990 153.470, 1816.606 154, 1817.142 154 C 1817.679 154, 1817.860 153.582, 1817.544 153.072 C 1816.691 151.691, 1821.024 150.624, 1822.301 151.901 C 1822.905 152.505, 1824.773 152.941, 1826.450 152.868 L 1829.500 152.737 1826 152.053 C 1822.626 151.393, 1822.707 151.340, 1828.241 150.570 C 1831.399 150.131, 1836.349 150.075, 1839.241 150.445 C 1845.189 151.207, 1845.660 151.228, 1848.681 150.854 C 1849.880 150.706, 1850.637 150.221, 1850.362 149.776 C 1850.087 149.331, 1849.398 149.254, 1848.831 149.604 C 1848.250 149.964, 1848.327 149.258, 1849.008 147.986 C 1849.966 146.195, 1850.396 146.016, 1851.092 147.115 C 1851.646 147.989, 1851.975 146.011, 1851.985 141.750 C 1851.995 137.289, 1851.621 135.085, 1850.883 135.250 C 1850.268 135.387, 1849.646 134.800, 1849.500 133.944 C 1849.353 133.088, 1848.321 130.498, 1847.206 128.189 C 1846.090 125.881, 1845.700 124.291, 1846.339 124.657 C 1846.977 125.023, 1846.487 124.208, 1845.250 122.847 C 1844.013 121.485, 1843 119.613, 1843 118.686 C 1843 117.758, 1842.550 117, 1842 117 C 1841.450 117, 1841 116.523, 1841 115.941 C 1841 115.359, 1841.563 115.206, 1842.250 115.602 C 1842.938 115.998, 1842.414 115.131, 1841.087 113.674 C 1839.513 111.946, 1838.291 111.344, 1837.570 111.942 C 1836.866 112.527, 1835.564 112.167, 1833.982 110.952 C 1832.617 109.903, 1830.964 109.034, 1830.309 109.022 C 1829.654 109.010, 1828.797 108.480, 1828.405 107.845 C 1827.962 107.130, 1828.130 106.962, 1828.845 107.405 C 1829.480 107.797, 1830 107.650, 1830 107.078 C 1830 106.442, 1828.158 106.212, 1825.250 106.485 C 1821.452 106.843, 1821.101 106.762, 1823.500 106.084 C 1826.244 105.309, 1826.286 105.235, 1824 105.218 C 1822.625 105.208, 1820.375 105.560, 1819 106" stroke="none" fill="#445500" fill-rule="evenodd"/><path d="M 1819.500 98.630 C 1791.541 105.224, 1777.083 112.085, 1763.137 125.379 C 1747.239 140.532, 1736.304 161.111, 1724.284 198.500 C 1722.750 203.273, 1721.961 204.458, 1720.428 204.294 C 1719.367 204.180, 1715.125 203.595, 1711 202.994 C 1682.981 198.906, 1648.172 201.541, 1618.500 209.997 C 1601.505 214.840, 1598.500 216.197, 1598.500 219.031 C 1598.500 221.218, 1599.071 221.593, 1603.500 222.316 C 1628.771 226.439, 1640.653 230.560, 1650.363 238.570 C 1653.912 241.497, 1658.036 245.491, 1659.527 247.446 L 1662.237 251 1659.519 254.564 C 1649.077 268.254, 1631.972 320.941, 1633.185 335.678 C 1633.457 338.974, 1633.835 339.500, 1635.932 339.500 C 1637.754 339.500, 1639.316 338.120, 1642.157 334 C 1650.342 322.129, 1665.050 308.044, 1677.404 300.245 C 1684.592 295.708, 1696.417 290.229, 1703.967 287.939 C 1720.121 283.038, 1731.971 285.672, 1742.558 296.515 C 1749.335 303.457, 1754.971 314.847, 1761.931 335.668 C 1768.856 356.385, 1770.485 360, 1772.896 360 C 1776.319 360, 1780.621 352.006, 1784.068 339.239 C 1785.641 333.412, 1786.261 327.560, 1786.576 315.553 C 1786.806 306.782, 1787.413 299.187, 1787.926 298.674 C 1788.438 298.162, 1792.041 297.515, 1795.934 297.237 C 1802.378 296.776, 1803.576 297.009, 1809.345 299.849 C 1816.686 303.463, 1821.640 308.498, 1834.261 325.173 C 1844.897 339.223, 1851.906 346.099, 1854.819 345.337 C 1857.996 344.506, 1858.148 342.604, 1855.905 331.677 C 1846.928 287.944, 1822.233 252.653, 1784.027 228.957 C 1776.872 224.519, 1762.429 216.976, 1758.717 215.739 C 1758.093 215.531, 1760.637 210.944, 1764.433 205.432 C 1781.735 180.305, 1795.489 168.213, 1814.030 161.830 C 1819.622 159.904, 1822.648 159.595, 1836.335 159.551 L 1852.171 159.500 1854.539 156.748 C 1863.456 146.387, 1858.497 121.632, 1844.832 108.296 C 1837.385 101.027, 1826.671 96.939, 1819.500 98.630 M 1816.625 105.645 C 1796.813 109.318, 1778.849 118.475, 1765.610 131.650 C 1751.999 145.194, 1742.519 162.859, 1732.981 192.448 C 1729.781 202.377, 1724.373 218.825, 1720.964 229 C 1714.624 247.921, 1713.581 253.585, 1715.918 256.401 C 1719.709 260.969, 1723.123 257.132, 1744.741 224 C 1763.109 195.848, 1772.022 184.069, 1782.195 174.499 C 1791.673 165.582, 1801.057 159.769, 1811.722 156.208 C 1818.615 153.907, 1821.206 153.598, 1834.500 153.491 L 1849.500 153.370 1851.318 149.935 C 1852.765 147.201, 1853.035 145.012, 1852.642 139.206 C 1851.808 126.896, 1844.367 113.644, 1835.308 108.335 C 1829.229 104.772, 1824.787 104.133, 1816.625 105.645" stroke="none" fill="#112b00" fill-rule="evenodd"/><path d="M 1632.447 234.074 C 1590.273 245.079, 1553.952 276.732, 1514.579 336.796 C 1495.359 366.117, 1483.241 387.542, 1448.004 454.500 C 1398.596 548.388, 1379.648 581.635, 1351.687 623.500 C 1326.187 661.680, 1303.241 690.412, 1275.500 718.899 C 1196.474 800.052, 1106.961 842.763, 993.139 853.630 C 960.132 856.781, 908.101 855.840, 871.111 851.424 C 864.297 850.610, 858.551 850.116, 858.341 850.326 C 857.811 850.856, 870.722 862.980, 881.511 872.085 C 939.389 920.925, 1008.239 948.726, 1089.500 956.070 C 1105.924 957.555, 1148.445 957.560, 1165.500 956.080 C 1265.167 947.432, 1368.656 912.523, 1473.500 852.186 C 1594.104 782.779, 1706.148 681.942, 1774.271 581.500 C 1836.309 490.030, 1858.658 407.095, 1838.407 343.500 C 1829.223 314.661, 1814.851 298, 1799.158 298 C 1795.909 298, 1791.893 298.271, 1790.234 298.603 L 1787.219 299.206 1786.720 316.853 C 1786.180 335.979, 1785.120 341.507, 1779.857 352.646 C 1776.785 359.148, 1774.337 361.450, 1771.609 360.404 C 1769.904 359.749, 1765.856 349.799, 1759.876 331.566 C 1750.103 301.762, 1738.097 287.585, 1721.462 286.205 C 1709.779 285.236, 1690.891 291.986, 1674.414 303.016 C 1665.140 309.224, 1648.162 325.930, 1642.420 334.496 C 1638.102 340.937, 1636.540 341.847, 1633.550 339.660 C 1631.740 338.337, 1631.708 337.791, 1632.937 329.381 C 1636.371 305.881, 1646.441 275.715, 1656.709 258.167 C 1659.069 254.134, 1661 250.496, 1661 250.081 C 1661 248.550, 1647.366 236.227, 1643.500 234.265 C 1639.549 232.259, 1639.413 232.257, 1632.447 234.074 M 1624 278.433 C 1590.681 292.102, 1567.595 315.880, 1546.254 358.509 C 1535.586 379.819, 1528.082 398.119, 1507.505 453 C 1484.648 513.961, 1465.840 555.186, 1443.177 594 C 1368.731 721.504, 1250.232 811.317, 1074.098 873.732 C 1062.219 877.941, 1052.341 881.495, 1052.147 881.629 C 1051.745 881.906, 1055.992 895, 1056.484 895 C 1056.661 895, 1064.386 892.350, 1073.652 889.111 C 1251.058 827.101, 1371.906 737.894, 1449.056 612 C 1475.154 569.412, 1494.340 528.213, 1521.005 457.500 C 1542.146 401.436, 1548.372 386.172, 1557.870 367.129 C 1579.705 323.353, 1601.213 301.622, 1634.702 289.503 C 1635.007 289.392, 1630.514 277.180, 1629.971 276.643 C 1629.712 276.387, 1627.025 277.192, 1624 278.433" stroke="none" fill="#ff0000" fill-rule="evenodd"/><path d="" stroke="none" fill="#5d4710" fill-rule="evenodd"/><path d="M -0 540.001 L -0 1080.001 960.250 1079.751 L 1920.500 1079.500 1920.751 539.750 L 1921.002 0 960.501 0 L 0 0 -0 540.001 M 0.496 540.500 C 0.496 837.500, 0.610 958.851, 0.750 810.168 C 0.890 661.485, 0.890 418.485, 0.750 270.168 C 0.610 121.851, 0.496 243.500, 0.496 540.500 M 1808.500 100.478 C 1783.836 107.007, 1764.658 119.577, 1750.766 138.316 C 1743.081 148.682, 1734.068 167.523, 1727.597 186.750 C 1724.403 196.238, 1721.275 203.989, 1720.645 203.976 C 1720.015 203.963, 1717.700 203.527, 1715.500 203.007 C 1713.300 202.487, 1704.675 201.558, 1696.333 200.942 C 1667.717 198.832, 1635.893 203.056, 1607.066 212.790 C 1598.088 215.821, 1595.751 217.788, 1597.607 220.750 C 1598.402 222.018, 1600.821 222.740, 1606.389 223.373 L 1614.074 224.246 1603.147 229.516 C 1563.181 248.791, 1528.335 285.396, 1489.788 348.597 C 1477.248 369.157, 1459.124 402.042, 1435.003 448 C 1388.358 536.874, 1368.480 571.864, 1341.549 612.500 C 1263.401 730.418, 1175.985 798.436, 1066.500 826.514 C 1030.525 835.740, 998.909 839.774, 955.500 840.678 C 915.617 841.508, 884.999 839.349, 838.167 832.403 C 828.635 830.989, 820.582 830.085, 820.273 830.393 C 819.964 830.702, 824.164 835.800, 829.606 841.722 C 835.048 847.644, 841.279 854.423, 843.453 856.787 C 849.902 863.800, 870.911 882.476, 882.608 891.595 C 957.401 949.898, 1046.703 976.362, 1151.250 971.205 C 1240.521 966.802, 1331.523 940.979, 1429 892.388 C 1509.267 852.377, 1579.634 804.476, 1652 740.586 C 1669.402 725.222, 1713.287 681.236, 1727.911 664.500 C 1806.385 574.689, 1851.230 489.049, 1859.089 413.991 C 1860.777 397.873, 1859.764 370.388, 1856.996 357.171 C 1855.017 347.727, 1854.968 346.693, 1856.416 345.093 C 1858.470 342.823, 1858.388 339.450, 1856.019 328.738 C 1845.497 281.152, 1815.425 243.282, 1770.117 220.559 L 1758.835 214.901 1760.554 212.200 C 1777.459 185.651, 1794.792 169.335, 1813 162.830 C 1818.783 160.764, 1821.306 160.505, 1835.873 160.487 L 1852.246 160.467 1855.055 157.104 C 1866.867 142.954, 1855.591 110.538, 1835.500 100.884 C 1827.943 97.254, 1821.070 97.150, 1808.500 100.478 M 219.500 372 C 216.613 373.912, 214.695 373.988, 168.500 374.015 C 123.563 374.042, 120.234 374.165, 116.328 375.938 C 108.614 379.441, 105.724 388.411, 110.192 394.985 C 113.490 399.840, 116.323 400.968, 125.250 400.985 C 129.512 400.993, 133.007 401.337, 133.016 401.750 C 133.024 402.163, 130.212 410.030, 126.766 419.234 L 120.500 435.968 112.907 435.984 C 106.957 435.997, 104.384 436.492, 101.013 438.275 C 96.513 440.654, 93 445.693, 93 449.767 C 93 456.808, 99.190 462.989, 106.250 462.996 C 108.785 462.999, 110 463.451, 110 464.391 C 110 466.810, 93.883 510.317, 91.434 514.509 C 86.424 523.085, 78.559 528, 69.842 528 C 61.477 528, 53.396 521.565, 54.272 515.601 C 55.310 508.529, 51.585 502.160, 44.500 498.890 C 36.665 495.274, 27.730 497.674, 23 504.666 C 20.789 507.934, 20.500 509.408, 20.500 517.430 C 20.500 525.855, 20.743 526.948, 23.912 532.792 C 38.829 560.303, 80.791 566.597, 105.277 544.996 C 111.318 539.668, 118.218 530.036, 121.862 521.846 C 123.415 518.356, 128.894 503.688, 134.037 489.250 L 143.388 463 152.726 463 C 163.397 463, 167.358 461.740, 171.257 457.107 C 174.858 452.827, 175.551 448.418, 173.449 443.165 C 171.257 437.686, 167.961 436, 159.443 436 C 153.512 436, 152.860 435.809, 153.462 434.250 C 153.833 433.288, 156.325 426.200, 159 418.500 C 161.675 410.800, 164.167 403.712, 164.538 402.750 C 165.151 401.164, 167.090 401, 185.214 401 C 203.853 401, 205.168 401.119, 204.537 402.750 C 198.467 418.437, 164.663 517.103, 163.856 521.486 C 161.753 532.922, 166.306 544.706, 175.157 550.733 C 182.824 555.955, 188.417 557.503, 199.500 557.472 C 210.529 557.441, 216.964 555.655, 225.933 550.136 L 230.790 547.148 233.090 549.596 C 236.885 553.635, 245.320 557.176, 252.527 557.754 C 261.079 558.441, 270.154 555.992, 278.103 550.855 L 284.149 546.947 287.208 549.522 C 300.561 560.757, 325.463 560.603, 342.389 549.180 L 347.119 545.988 349.477 548.790 C 350.773 550.331, 354.234 552.921, 357.167 554.546 C 361.966 557.204, 363.401 557.500, 371.500 557.500 C 378.934 557.500, 381.333 557.090, 385.286 555.143 C 391.341 552.162, 399.089 545.093, 408.641 533.834 L 416.128 525.009 419.814 527.959 C 426.996 533.707, 432.461 535.438, 443.760 535.544 L 454.020 535.640 456.835 540.070 C 464.806 552.616, 478.816 558.764, 497 557.695 C 507.675 557.068, 514.171 555.164, 521.500 550.513 C 526.132 547.574, 531.690 542.150, 533.667 538.640 C 534.373 537.387, 535.646 537.324, 542 538.230 C 547.925 539.076, 550.986 538.999, 556.577 537.865 L 563.654 536.430 565.402 540.657 C 567.533 545.808, 574.416 552.344, 580.780 555.258 C 584.533 556.976, 587.447 557.427, 595 557.460 C 603.315 557.495, 605.230 557.158, 610.350 554.760 C 613.567 553.253, 618.404 550.173, 621.099 547.917 L 625.999 543.814 631.048 548.353 C 642.812 558.930, 661.753 560.929, 677.629 553.268 C 695.554 544.620, 706.611 528.504, 720.522 490.750 C 724.322 480.437, 727.897 472.004, 728.466 472.010 C 729.035 472.015, 731.801 473.091, 734.614 474.401 C 742.748 478.188, 742.916 479.903, 736.851 497.203 C 730.074 516.534, 729.026 520.546, 729.012 527.212 C 728.994 535.659, 732.054 542.841, 738.065 548.464 C 745.750 555.652, 750.644 557.500, 762 557.500 C 770.936 557.500, 771.972 557.274, 779.453 553.703 C 793.904 546.803, 807.827 529.987, 816.465 509 C 820.951 498.100, 821.056 493.789, 816.928 489.933 C 811.461 484.826, 801.750 484.723, 796.902 489.720 C 795.418 491.249, 792.590 496.277, 790.616 500.893 C 780.290 525.051, 765.063 539.187, 760.969 528.418 C 759.943 525.719, 760.279 524.595, 772.015 491.500 C 778.156 474.183, 777.239 466.079, 768.108 456.948 C 762.239 451.079, 755.212 446.965, 744.330 443.024 C 738.241 440.820, 738.167 440.747, 738.693 437.503 C 740.265 427.819, 730.420 417.044, 720 417.044 C 704.856 417.044, 694.921 436.629, 702.486 451.571 L 704.971 456.481 700.358 468.990 C 687.140 504.837, 681.805 515.909, 673.775 524.155 C 664.898 533.271, 653 534.925, 653 527.043 C 653 525.455, 658.915 507.584, 666.145 487.328 C 673.374 467.073, 679.474 448.475, 679.700 446 C 681.087 430.813, 658.740 425.007, 650.857 438.506 C 649.893 440.155, 643.485 457.170, 636.616 476.316 C 629.747 495.462, 622.773 513.236, 621.118 515.813 C 613.401 527.832, 601.616 535.216, 597.200 530.800 C 594.520 528.120, 596.259 521.312, 608.571 486.274 C 622.098 447.779, 623.101 443.309, 619.349 438.244 C 618.231 436.735, 615.782 434.448, 613.908 433.161 C 611.065 431.211, 609.547 430.890, 604.749 431.225 C 600.066 431.553, 598.425 432.173, 595.910 434.564 C 591.559 438.701, 591.246 439.433, 580.638 470.333 C 575.398 485.597, 570.188 499.578, 569.060 501.403 C 566.454 505.620, 560.538 509.733, 554.438 511.569 C 546.738 513.886, 545.354 513.572, 544.669 509.349 C 544.189 506.388, 544.549 505.136, 546.575 502.728 C 550.701 497.826, 555.459 485.412, 557.448 474.362 C 560.949 454.910, 550.497 438.365, 531.068 432.609 C 524.894 430.780, 510.860 430.505, 504.028 432.079 C 491.939 434.865, 478.034 445.137, 472.997 455.002 C 471.734 457.476, 467.834 467.600, 464.330 477.500 C 455.061 503.693, 454.306 505.388, 451.058 507.307 C 449.392 508.291, 446.094 509, 443.185 509 C 438.821 509, 437.845 508.605, 435.589 505.923 C 431.777 501.393, 432.139 496.900, 437.039 487.910 C 448.859 466.227, 452.245 458.304, 452.759 451.129 C 453.690 438.119, 447.526 430.990, 435.364 431.010 C 419.313 431.037, 404.310 447.807, 398.954 471.707 C 397.571 477.875, 397.596 491.247, 398.998 495.494 C 400.079 498.768, 399.860 499.275, 392.879 509.681 C 385.116 521.251, 377.574 530, 375.363 530 C 374.523 530, 374 528.878, 374 527.077 C 374 525.470, 378.079 506.908, 383.065 485.827 C 393.233 442.837, 393.349 441.534, 387.569 435.227 C 384.633 432.023, 383.650 431.602, 378.183 431.207 C 372.938 430.827, 371.450 431.133, 367.634 433.368 C 364.620 435.135, 362.533 437.342, 361.141 440.236 C 360.013 442.581, 356.807 454.850, 354.015 467.500 C 351.224 480.150, 347.990 493.425, 346.830 497 C 340.200 517.416, 327.306 532, 315.884 532 C 311.433 532, 310 530.514, 310 525.898 C 310 523.750, 315.457 506.390, 323 484.538 C 330.150 463.826, 336 445.288, 336 443.341 C 336 429.545, 319.672 423.681, 307.688 433.174 L 303.877 436.193 298.688 433.868 C 294.202 431.858, 291.875 431.541, 281.500 431.522 C 270.586 431.502, 269.002 431.737, 264 434.125 C 256.326 437.788, 250.882 442.855, 247.294 449.674 C 245.608 452.878, 239.386 469.450, 233.467 486.500 C 221.584 520.731, 220.014 523.657, 210.655 529.024 C 207.820 530.651, 204.138 531.985, 202.473 531.991 C 198.723 532.002, 195 529.514, 195 526.996 C 195 525.956, 205.616 494.370, 218.592 456.803 C 243.283 385.317, 244.194 381.998, 240.635 376.566 C 236.425 370.141, 225.780 367.841, 219.500 372 M 1180.329 371.941 C 1178.585 373.005, 1176.047 375.815, 1174.689 378.187 C 1173.331 380.559, 1163.348 407.925, 1152.505 439 C 1141.662 470.075, 1131.702 497.397, 1130.373 499.716 C 1126.459 506.541, 1118.818 511.425, 1110.279 512.557 L 1105.245 513.225 1104.774 509.363 C 1104.387 506.194, 1104.795 504.932, 1107.046 502.336 C 1110.564 498.277, 1115.380 485.777, 1117.622 474.885 C 1119.281 466.822, 1119.284 465.986, 1117.673 459.430 C 1113.282 441.568, 1098.169 431, 1077.016 431 C 1059.539 431, 1044.512 438.350, 1035.633 451.242 C 1033.024 455.031, 1029.065 464.641, 1022.318 483.567 C 1013.964 507, 1012.654 511.552, 1012.241 518.591 C 1011.661 528.468, 1013.508 535.482, 1018.450 542.167 C 1025.133 551.209, 1036.474 556.791, 1050.084 557.736 C 1066.648 558.887, 1080.109 554.082, 1089.691 543.599 L 1095.500 537.244 1102.589 538.241 C 1108.152 539.023, 1111.273 538.907, 1117.089 537.702 C 1123.720 536.327, 1124.605 536.325, 1125.500 537.686 C 1126.050 538.523, 1127.716 541.167, 1129.202 543.563 C 1139.128 559.562, 1167.232 562.685, 1187.020 549.987 L 1191.842 546.893 1196.370 550.349 C 1203.450 555.753, 1209.779 557.508, 1222 557.454 C 1231.050 557.415, 1233.370 557.042, 1238.796 554.756 C 1242.259 553.296, 1247.254 550.516, 1249.896 548.577 L 1254.699 545.051 1257.040 547.542 C 1260.269 550.980, 1269.915 555.632, 1276.781 557.063 C 1283.994 558.566, 1298.787 557.712, 1305.500 555.405 C 1314.325 552.371, 1324.096 544.982, 1327.667 538.640 C 1328.373 537.386, 1329.644 537.324, 1336 538.234 C 1353.563 540.749, 1373.314 532.005, 1384.702 516.674 C 1399.785 496.368, 1399.204 479, 1383.442 479 C 1376.324 479, 1373.125 481.805, 1368.162 492.395 C 1362.262 504.985, 1354.886 511.094, 1343.740 512.622 L 1339.299 513.231 1338.688 509.464 C 1338.186 506.371, 1338.523 505.167, 1340.575 502.728 C 1344.701 497.826, 1349.459 485.412, 1351.448 474.362 C 1354.949 454.910, 1344.497 438.365, 1325.068 432.609 C 1318.894 430.780, 1304.860 430.505, 1298.028 432.079 C 1285.661 434.929, 1271.927 445.227, 1266.778 455.511 C 1265.404 458.255, 1260.358 471.750, 1255.563 485.500 C 1250.769 499.250, 1246.034 512.300, 1245.042 514.500 C 1241.021 523.413, 1230.782 532, 1224.175 532 C 1220.174 532, 1216 528.524, 1216 525.193 C 1216 523.729, 1221.690 506.324, 1228.644 486.516 C 1235.598 466.707, 1241.499 448.437, 1241.756 445.916 C 1242.651 437.123, 1236.857 431.011, 1227.618 431.004 C 1221.730 430.999, 1217.327 433.452, 1213.720 438.746 C 1212.314 440.811, 1205.898 457.800, 1199.464 476.500 C 1187.596 510.990, 1185.026 516.641, 1177.839 524.047 C 1168.860 533.298, 1156 534.632, 1156 526.312 C 1156 525.196, 1166.415 494.181, 1179.145 457.391 C 1192.980 417.409, 1202.478 388.454, 1202.756 385.414 C 1203.321 379.231, 1201.314 374.772, 1196.701 371.960 C 1192.443 369.363, 1184.572 369.354, 1180.329 371.941 M 963.301 376.080 C 960.302 377.564, 958.515 379.370, 957.051 382.395 C 954.623 387.411, 954.534 388.950, 956.416 393.454 C 958.624 398.737, 962.125 400.427, 972.053 401 L 980.710 401.500 974.212 418.635 L 967.715 435.769 958.853 436.193 C 949.349 436.647, 946.728 437.804, 942.562 443.386 C 940.025 446.784, 939.947 453.463, 942.400 457.206 C 944.562 460.506, 949.727 463, 954.401 463 C 956.381 463, 958 463.117, 958 463.261 C 958 464.065, 942.800 505.664, 941.111 509.481 C 936.036 520.955, 929.263 526.705, 919.653 527.696 C 915.603 528.114, 913.252 527.763, 909.755 526.216 C 903.876 523.615, 901.764 520.355, 901.597 513.620 C 901.213 498.146, 881.682 491.081, 871.789 502.839 C 868.007 507.333, 866.670 512.298, 867.260 519.650 C 868.954 540.749, 891.083 557.970, 916.500 557.970 C 932.132 557.970, 943.966 553.075, 955.044 542.025 C 964.948 532.146, 967.894 526.283, 980.380 491.607 L 990.500 463.500 1001 463 C 1009.612 462.590, 1012.155 462.093, 1015.144 460.234 C 1021.242 456.442, 1023.454 449.413, 1020.655 442.718 C 1018.556 437.697, 1016.505 436.611, 1008.027 436.030 L 1000.289 435.500 1006.280 418.250 L 1012.272 401 1039.393 401 C 1054.309 401, 1068.051 400.559, 1069.931 400.020 C 1081.017 396.840, 1084.166 382.386, 1075.102 376.287 L 1071.704 374 1019.602 374.001 C 968.858 374.002, 967.391 374.056, 963.301 376.080 M 1238.500 376.515 C 1231.467 380.308, 1228 385.753, 1228 393.008 C 1228 404.194, 1239.195 412.909, 1249.871 410.035 C 1269.154 404.842, 1266.577 376.727, 1246.686 375.276 C 1243.193 375.021, 1240.521 375.425, 1238.500 376.515 M 510.574 457.487 C 502.663 460.305, 500.940 463.272, 491.395 490.500 C 481.804 517.861, 480.565 524.645, 484.387 528.873 C 488.387 533.298, 497.870 532.809, 503.474 527.889 C 508.227 523.715, 508.758 521.417, 505.719 518.156 C 501.961 514.122, 500.806 511.241, 500.847 505.995 C 500.934 494.784, 509.028 485.507, 519.381 484.753 C 522.765 484.506, 522.907 484.321, 524.930 477.500 C 527.814 467.778, 527.684 462.538, 524.486 459.574 C 523.103 458.293, 520.572 456.964, 518.861 456.622 C 514.972 455.844, 515.270 455.813, 510.574 457.487 M 1070.500 457.502 C 1063.001 460.154, 1061.221 463.290, 1051.608 490.789 C 1042.206 517.686, 1041.088 523.433, 1044.303 528.340 C 1047.725 533.562, 1057.725 533.050, 1064.060 527.327 C 1068.265 523.528, 1068.965 521.046, 1066.427 518.939 C 1065.562 518.221, 1063.938 515.839, 1062.819 513.645 C 1056.808 501.864, 1065.883 486.094, 1079.476 484.699 C 1083.837 484.252, 1083.822 484.278, 1086.489 472.089 C 1088.284 463.884, 1086.870 459.679, 1081.568 457.464 C 1077.294 455.678, 1075.642 455.684, 1070.500 457.502 M 1304.574 457.487 C 1296.663 460.305, 1294.940 463.272, 1285.395 490.500 C 1275.804 517.861, 1274.565 524.645, 1278.387 528.873 C 1282.387 533.298, 1291.870 532.809, 1297.474 527.889 C 1302.227 523.715, 1302.758 521.417, 1299.719 518.156 C 1295.961 514.122, 1294.806 511.241, 1294.847 505.995 C 1294.934 494.784, 1303.028 485.507, 1313.381 484.753 C 1316.765 484.506, 1316.907 484.321, 1318.930 477.500 C 1321.814 467.778, 1321.684 462.538, 1318.486 459.574 C 1317.103 458.293, 1314.572 456.964, 1312.861 456.622 C 1308.972 455.844, 1309.270 455.813, 1304.574 457.487 M 282 458.685 C 279.426 459.662, 275.881 463.353, 274.006 467.008 C 271.278 472.326, 256 520.554, 256 523.847 C 256 525.433, 256.933 527.916, 258.073 529.365 C 261.858 534.177, 269.774 532.096, 275.316 524.831 C 278.472 520.692, 278.737 520.008, 286.595 495.631 C 293.925 472.893, 294.757 466.078, 290.750 461.593 C 288.411 458.976, 284.586 457.704, 282 458.685 M 1103.317 596.154 C 1095.919 604.102, 1099.415 614, 1109.619 614 C 1119.070 614, 1124.148 603.693, 1117.816 597.362 C 1113.973 593.519, 1106.360 592.884, 1103.317 596.154 M 718.481 596.394 C 714.238 598.242, 709.544 603.934, 707.553 609.645 C 704.660 617.940, 703.621 619.459, 700.464 620.006 C 697.536 620.513, 697.500 620.598, 697.500 627.010 C 697.500 632.979, 697.681 633.526, 699.750 633.820 C 700.987 633.995, 702.009 634.445, 702.019 634.820 C 702.030 635.194, 700.599 644.222, 698.841 654.883 C 695.774 673.475, 695.717 674.320, 697.456 675.591 C 700.201 677.599, 709.861 679.539, 711.074 678.326 C 711.628 677.772, 713.641 668.585, 715.547 657.910 C 717.454 647.234, 719.451 637.487, 719.986 636.250 C 720.807 634.347, 721.727 634, 725.943 634 C 732.022 634, 733.242 632.350, 732.801 624.720 L 732.500 619.500 728.250 619.193 C 724.814 618.944, 724 618.513, 724 616.943 C 724 613.381, 727.689 610.823, 732.321 611.173 L 736.500 611.489 738.363 605.760 C 739.388 602.609, 739.975 599.377, 739.668 598.578 C 738.411 595.301, 724.322 593.849, 718.481 596.394 M 155.528 599.317 C 151.626 605.273, 141.871 652.771, 141.639 666.952 L 141.500 675.407 147.848 677.320 C 155.917 679.751, 156.358 679.321, 157.911 667.500 C 159.657 654.219, 164.563 630.338, 168.660 615.180 C 170.712 607.588, 171.881 601.499, 171.380 601.021 C 170.405 600.091, 160.382 597, 158.342 597 C 157.629 597, 156.363 598.042, 155.528 599.317 M 341.115 598.786 C 337.878 604.834, 329.288 643.914, 326.928 663.331 C 325.903 671.762, 325.942 673.371, 327.205 674.633 C 329.093 676.522, 340.004 679.396, 341.104 678.296 C 341.564 677.836, 342.650 672.743, 343.517 666.980 C 346.745 645.512, 346.888 645.103, 352.787 640.302 C 360.395 634.112, 361.390 634.417, 360.753 642.750 C 360.470 646.462, 359.017 654.875, 357.525 661.445 C 354.391 675.243, 354.237 674.848, 363.861 677.647 C 368.365 678.957, 369.430 678.990, 370.522 677.853 C 371.891 676.428, 375.858 659.194, 378.606 642.741 C 380.542 631.143, 380.005 629.103, 373.411 623.025 C 366.894 617.017, 363.312 617.543, 354.825 625.754 L 350.150 630.277 351.036 626.388 C 351.522 624.250, 353.233 618, 354.837 612.500 C 358.218 600.912, 358.126 600.650, 349.918 598.466 C 342.956 596.613, 342.264 596.638, 341.115 598.786 M 472.115 598.786 C 468.822 604.937, 460.147 644.573, 457.975 663.381 C 457.016 671.686, 457.061 673.490, 458.256 674.684 C 460.086 676.515, 471.015 679.386, 472.080 678.316 C 472.527 677.867, 473.623 672.550, 474.514 666.500 C 476.779 651.134, 482.631 623.491, 486.034 612.083 C 489.353 600.956, 489.251 600.683, 480.918 598.466 C 473.956 596.613, 473.264 596.638, 472.115 598.786 M 806.670 597.750 C 805.036 600.482, 800.561 617.452, 797.598 632.151 C 793.215 653.901, 791.768 664.130, 792.178 670.475 L 792.500 675.451 798.837 677.338 C 803.219 678.643, 805.495 678.905, 806.213 678.187 C 806.784 677.616, 807.889 672.728, 808.668 667.324 C 810.861 652.122, 816.680 624.337, 820.042 613.021 C 823.546 601.225, 823.418 600.795, 815.699 598.503 C 810.107 596.843, 807.350 596.613, 806.670 597.750 M 427.903 600.102 C 414.552 601.393, 414.247 601.599, 413.756 609.693 C 413.529 613.437, 411.947 622.800, 410.241 630.500 C 406.483 647.460, 403.730 666.064, 404.174 671.500 C 404.491 675.389, 404.653 675.549, 410 677.275 C 419.279 680.269, 419.200 680.348, 421.571 665.762 C 422.711 658.756, 423.980 652.681, 424.392 652.262 C 424.805 651.843, 430.398 651.050, 436.821 650.500 L 448.500 649.500 448.291 643.579 C 447.979 634.716, 448.334 635, 437.590 635 C 432.381 635, 427.925 634.663, 427.689 634.250 C 427.454 633.837, 428.125 629.839, 429.182 625.365 C 431.372 616.091, 431.510 616, 443.485 616 C 446.915 616, 451.828 615.711, 454.403 615.358 L 459.085 614.717 458.792 608.134 C 458.531 602.258, 458.231 601.416, 456 600.290 C 453.204 598.880, 441.358 598.801, 427.903 600.102 M 1066.376 600.201 C 1065.968 600.861, 1064.444 605.218, 1062.990 609.882 C 1060.402 618.184, 1060.264 618.386, 1056.423 619.459 L 1052.500 620.556 1052.202 626.785 C 1051.927 632.536, 1052.084 633.082, 1054.259 633.908 L 1056.614 634.804 1054.709 646.152 C 1052.358 660.163, 1053.250 666.057, 1058.618 671.999 C 1062.366 676.147, 1068.336 679.469, 1070.530 678.627 C 1072.517 677.864, 1078 670.028, 1078 667.950 C 1078 666.987, 1076.425 664.625, 1074.500 662.700 C 1072.061 660.261, 1071 658.294, 1071 656.210 C 1071 651.730, 1074.021 636.681, 1075.208 635.250 C 1075.804 634.532, 1078.546 634, 1081.654 634 C 1087.956 634, 1088.426 633.379, 1088.471 625 L 1088.500 619.500 1083.750 619.195 C 1078.403 618.852, 1078.303 618.615, 1080.489 611.409 C 1082.925 603.380, 1082.640 602.406, 1077.322 600.594 C 1071.760 598.699, 1067.401 598.542, 1066.376 600.201 M 863.199 602.588 C 856.469 605.942, 851.639 611.575, 846.986 621.500 C 842.218 631.669, 840.631 638.458, 840.670 648.518 C 840.722 661.985, 845.352 669.536, 857.187 675.457 C 869.016 681.375, 879.075 679.652, 888.391 670.111 L 892.233 666.177 890.499 661.637 C 889.546 659.141, 888.010 656.414, 887.087 655.579 C 885.569 654.205, 884.941 654.393, 880.498 657.552 C 870.433 664.708, 863.438 664.376, 859.895 656.576 C 853.825 643.211, 865.349 614.110, 876.283 615.194 C 880.166 615.579, 881.314 619.073, 879.939 626.322 C 879.344 629.458, 879.335 631.735, 879.914 632.314 C 880.454 632.854, 883.666 632.948, 887.513 632.536 C 893.992 631.842, 894.220 631.720, 895.744 628.161 C 896.606 626.147, 897.511 622.250, 897.754 619.500 C 898.115 615.421, 897.787 613.981, 895.974 611.684 C 893.054 607.985, 887.028 604.246, 880.200 601.897 C 872.838 599.364, 869.388 599.504, 863.199 602.588 M 34.684 603.128 C 32.422 606.656, 27.264 624.254, 25.525 634.381 C 24.686 639.266, 24 647.042, 24 651.663 C 24 664.971, 27.484 670.849, 38.500 676.125 C 56.523 684.757, 70.349 673.893, 77.475 645.500 C 81.042 631.286, 83.184 608.408, 81.235 605.346 C 80.347 603.952, 69.311 600.943, 67.556 601.617 C 66.803 601.906, 65.839 605.937, 65.123 611.798 C 63.485 625.191, 59.432 644.771, 56.890 651.563 C 54.142 658.908, 50.290 663.250, 46.522 663.250 C 44.907 663.250, 43.076 662.457, 42.328 661.434 C 39.256 657.233, 41.616 637.608, 47.622 617.407 C 49.078 612.508, 50.322 607.615, 50.385 606.534 C 50.525 604.142, 46.932 602.227, 40.706 601.373 C 36.715 600.826, 36.034 601.025, 34.684 603.128 M 190.365 619.036 C 181.476 620.920, 173.092 632.605, 170.024 647.385 C 167.323 660.396, 171.494 670.648, 181.475 675.532 C 189.737 679.574, 195.668 679.886, 202.324 676.630 C 205.271 675.188, 208.500 673.104, 209.500 672 C 211.130 670.199, 211.181 669.578, 209.994 665.982 C 208.083 660.193, 206.888 659.516, 201.783 661.335 C 193.935 664.131, 192.320 664.187, 189.612 661.754 C 188.232 660.514, 186.967 658.600, 186.801 657.500 C 186.527 655.682, 187.227 655.446, 194.502 654.904 C 203.194 654.256, 207.066 652.728, 211.128 648.339 C 214.957 644.202, 216.167 641.360, 216.167 636.500 C 216.167 629.288, 214.061 626.585, 205.112 622.304 C 198.355 619.072, 194.364 618.188, 190.365 619.036 M 617.123 619.092 C 607.024 621.207, 598.253 635.394, 597.238 651.254 C 596.327 665.509, 600.398 672.386, 612.407 676.879 C 629.457 683.258, 641.851 673.648, 646.677 650.306 C 648.558 641.213, 647.252 633.490, 643.023 628.690 C 637.534 622.458, 624.360 617.576, 617.123 619.092 M 962.500 618.996 C 958.098 619.960, 955.650 621.496, 952.135 625.499 C 943.304 635.557, 938.911 652.297, 942.213 663.315 C 944.872 672.191, 957.015 679.698, 967.172 678.746 C 972.102 678.284, 981.321 673.212, 982.416 670.358 C 982.743 669.507, 982.110 666.775, 981.009 664.288 C 979.268 660.352, 978.716 659.857, 976.754 660.474 C 964.582 664.304, 961.267 664.237, 959.061 660.114 C 956.777 655.847, 957.558 655.232, 965.750 654.848 C 974.842 654.422, 979.905 652.198, 984.384 646.664 C 988.476 641.608, 989.276 632.870, 986.025 628.749 C 981.604 623.148, 968.448 617.693, 962.500 618.996 M 1138.500 618.954 C 1131.854 620.502, 1126.242 625.933, 1122.488 634.446 C 1116.512 648.004, 1116.552 662.748, 1122.584 669.918 C 1128.448 676.887, 1142.288 680.689, 1150.447 677.574 C 1163.913 672.431, 1173.207 645.776, 1166.478 631.596 C 1163.054 624.379, 1146.777 617.025, 1138.500 618.954 M 90.566 622.117 C 84.315 658.903, 82.208 673.546, 83.026 674.532 C 84.685 676.530, 95.919 679.481, 97.157 678.243 C 97.758 677.642, 99.703 669.929, 101.479 661.103 C 103.255 652.277, 105.336 644.294, 106.104 643.361 C 108.191 640.828, 115.107 636, 116.650 636 C 118.743 636, 118.321 643.883, 115.501 657.433 C 114.136 663.997, 112.774 670.137, 112.475 671.078 C 111.689 673.556, 114.294 675.675, 120.554 677.648 C 125.464 679.196, 126.209 679.219, 127.565 677.864 C 129.108 676.320, 133.898 655.090, 136.020 640.385 C 137.376 630.983, 136.575 628.468, 130.533 623.163 C 123.746 617.204, 119.122 617.688, 111.890 625.113 L 107 630.133 107 626.590 C 107 622.074, 104.166 620.079, 96.648 619.303 L 91.140 618.735 90.566 622.117 M 236.547 621.272 C 228.608 625.768, 222.879 636.535, 220.917 650.644 C 219.501 660.826, 221.396 667.448, 227.462 673.515 C 235.028 681.080, 241.198 680.665, 247.500 672.168 C 249.150 669.943, 250.838 668.095, 251.250 668.061 C 251.662 668.027, 252 669.520, 252 671.378 C 252 675.559, 253.247 676.631, 259.899 678.166 C 264.097 679.135, 265.306 679.124, 265.932 678.110 C 266.363 677.412, 267.006 672.715, 267.361 667.671 C 268.062 657.692, 269.999 645.595, 272.314 636.727 C 273.980 630.348, 273.653 629.554, 268 626.278 C 255.573 619.076, 243.747 617.194, 236.547 621.272 M 290.039 621.166 C 283.714 625.480, 279 634.471, 279 642.218 C 279 648.068, 282.545 652.011, 292.016 656.696 C 297.974 659.643, 300.500 661.430, 300.500 662.696 C 300.500 665.385, 291.880 665.018, 285.754 662.068 C 283.143 660.811, 280.359 660.032, 279.566 660.336 C 278.171 660.872, 276.017 666.800, 276.006 670.135 C 275.998 672.314, 279.444 674.454, 287.144 677.052 C 302.341 682.178, 316.188 676.059, 318.629 663.139 C 319.829 656.787, 317.278 653.715, 306.554 648.602 C 297.870 644.462, 297 643.794, 297.004 641.273 C 297.009 637.043, 300.497 632, 303.418 632 C 306.427 632, 307.415 634.585, 306.493 640.042 L 305.824 644 312.392 644 L 318.959 644 320.980 640.040 C 323.641 634.822, 323.529 631.782, 320.542 628.232 C 317.126 624.172, 307.007 619.846, 299.590 619.275 C 294.373 618.873, 293.004 619.144, 290.039 621.166 M 501.547 621.272 C 493.608 625.768, 487.879 636.535, 485.917 650.644 C 484.501 660.826, 486.396 667.448, 492.462 673.515 C 500.028 681.080, 506.198 680.665, 512.500 672.168 C 514.150 669.943, 515.837 668.095, 516.250 668.061 C 516.663 668.027, 517 669.520, 517 671.378 C 517 675.559, 518.247 676.631, 524.899 678.166 C 529.097 679.135, 530.306 679.124, 530.932 678.110 C 531.363 677.412, 532.006 672.715, 532.361 667.671 C 533.062 657.692, 534.999 645.595, 537.314 636.727 C 538.980 630.348, 538.653 629.554, 533 626.278 C 520.573 619.076, 508.747 617.194, 501.547 621.272 M 547.419 621.466 C 547.040 622.976, 546.945 634.271, 547.208 646.564 C 547.576 663.752, 548.011 669.310, 549.093 670.617 C 550.855 672.746, 561.396 677.792, 565.816 678.624 C 568.574 679.142, 569.635 678.766, 572.119 676.386 C 575.855 672.807, 588.672 647.302, 592.347 636.134 C 595.007 628.050, 595.039 627.701, 593.300 625.776 C 592.310 624.680, 589.304 622.670, 586.619 621.309 C 580.556 618.234, 580.205 618.534, 576.466 630 C 573.026 640.548, 565.212 660.172, 563.943 661.450 C 562.781 662.620, 562.783 662.099, 564.008 640.025 C 564.792 625.894, 564.725 622.297, 563.659 621.231 C 562.934 620.506, 559.139 619.644, 555.225 619.316 L 548.109 618.719 547.419 621.466 M 659.581 620.112 C 659.327 620.876, 657.210 633.152, 654.877 647.393 L 650.635 673.286 652.800 675.039 C 655.960 677.598, 664.993 679.629, 665.997 678.005 C 666.421 677.319, 668.155 669.499, 669.850 660.628 C 673.347 642.331, 673.495 642.094, 682.632 640.074 C 685.859 639.361, 689.063 638.322, 689.750 637.766 C 691.611 636.261, 691.471 620.118, 689.590 619.396 C 687.676 618.662, 683.124 621.165, 679.563 624.911 C 675.898 628.765, 675 628.790, 675 625.035 C 675 621.377, 672.775 620.039, 665.436 619.281 C 661.351 618.860, 659.931 619.061, 659.581 620.112 M 743.313 621.645 C 740.916 625.303, 736.290 644.164, 735.469 653.626 C 734.644 663.133, 735.743 667.498, 740.254 672.637 C 747.981 681.437, 756.146 680.789, 762.710 670.856 L 765.500 666.633 766.409 670.898 C 767.500 676.012, 770.138 678.025, 776.115 678.301 L 780.425 678.500 781.601 667.445 C 782.814 656.041, 785.953 638.432, 788.402 629.289 C 789.448 625.384, 789.510 623.841, 788.649 623.133 C 786.862 621.665, 776.053 618.766, 774.537 619.348 C 772.904 619.974, 770.472 628.017, 767.889 641.333 C 766.840 646.741, 765.541 651.989, 765.003 652.995 C 763.422 655.948, 755.810 662, 753.675 662 C 751.869 662, 751.759 661.498, 752.306 655.750 C 752.634 652.313, 754.263 644.133, 755.927 637.573 C 758.072 629.116, 758.649 625.282, 757.912 624.394 C 757.340 623.704, 754.193 622.236, 750.919 621.130 L 744.967 619.120 743.313 621.645 M 906.581 620.112 C 906.327 620.876, 904.210 633.152, 901.877 647.393 L 897.635 673.286 899.800 675.039 C 902.960 677.598, 911.993 679.629, 912.997 678.005 C 913.421 677.319, 915.155 669.499, 916.850 660.628 C 920.347 642.331, 920.495 642.094, 929.632 640.074 C 932.859 639.361, 936.063 638.322, 936.750 637.766 C 938.611 636.261, 938.471 620.118, 936.590 619.396 C 934.676 618.662, 930.124 621.165, 926.563 624.911 C 922.898 628.765, 922 628.790, 922 625.035 C 922 621.377, 919.775 620.039, 912.436 619.281 C 908.351 618.860, 906.931 619.061, 906.581 620.112 M 1009.500 620.514 C 1001.873 624.613, 996.972 631.880, 994.001 643.496 C 990.541 657.026, 992.014 666.170, 998.809 673.339 C 1006.247 681.187, 1013.550 680.586, 1019.767 671.615 L 1022.489 667.688 1023.494 671.094 C 1024.997 676.182, 1025.553 676.693, 1031.018 678.004 C 1037.732 679.615, 1039 678.542, 1039 671.256 C 1039 664.747, 1041.520 646.835, 1043.558 638.856 C 1045.972 629.405, 1046.100 629.633, 1035.398 624.320 C 1027.379 620.340, 1024.700 619.500, 1019.148 619.228 C 1014.428 618.997, 1011.630 619.369, 1009.500 620.514 M 1099.145 620.325 C 1097.624 622.158, 1094.436 636.075, 1092.118 651 C 1088.838 672.119, 1088.802 672.802, 1090.886 674.886 C 1093.227 677.227, 1102.761 679.639, 1104.156 678.244 C 1104.703 677.697, 1106.438 669.655, 1108.010 660.374 C 1109.583 651.094, 1111.850 639.074, 1113.049 633.664 C 1114.450 627.341, 1114.884 623.484, 1114.263 622.863 C 1113.327 621.927, 1103.650 619.036, 1101.372 619.012 C 1100.752 619.005, 1099.750 619.596, 1099.145 620.325 M 1180.566 622.117 C 1174.315 658.903, 1172.208 673.546, 1173.026 674.532 C 1174.685 676.530, 1185.919 679.481, 1187.157 678.243 C 1187.758 677.642, 1189.703 669.929, 1191.479 661.103 C 1193.255 652.277, 1195.336 644.294, 1196.104 643.361 C 1198.191 640.828, 1205.107 636, 1206.650 636 C 1208.743 636, 1208.321 643.883, 1205.501 657.433 C 1204.136 663.997, 1202.774 670.137, 1202.475 671.078 C 1201.689 673.556, 1204.294 675.675, 1210.554 677.648 C 1215.464 679.196, 1216.209 679.219, 1217.565 677.864 C 1219.108 676.320, 1223.898 655.090, 1226.020 640.385 C 1227.376 630.983, 1226.575 628.468, 1220.533 623.163 C 1213.746 617.204, 1209.122 617.688, 1201.890 625.113 L 1197 630.133 1197 626.590 C 1197 622.074, 1194.166 620.079, 1186.648 619.303 L 1181.140 618.735 1180.566 622.117 M 1244.371 620.980 C 1238.788 624.661, 1233.150 634.719, 1233.044 641.185 C 1232.936 647.784, 1236.970 652.394, 1247 657.135 C 1255.418 661.114, 1256.346 661.878, 1254.890 663.633 C 1253.117 665.769, 1247.301 665.247, 1240.911 662.379 C 1237.699 660.938, 1234.443 660, 1233.676 660.294 C 1232.908 660.589, 1231.747 662.948, 1231.095 665.536 C 1230.078 669.578, 1230.138 670.496, 1231.526 672.029 C 1234.394 675.198, 1243.134 678.282, 1250.500 678.724 C 1256.397 679.078, 1258.200 678.779, 1261.942 676.822 C 1268.245 673.527, 1272.177 668.218, 1272.752 662.226 C 1273.172 657.859, 1272.917 657.071, 1270.212 654.366 C 1268.559 652.713, 1263.777 649.865, 1259.586 648.038 C 1253.629 645.440, 1251.829 644.168, 1251.337 642.207 C 1250.063 637.131, 1256.279 630.200, 1260.027 632.517 C 1260.718 632.944, 1261.036 635.246, 1260.834 638.361 L 1260.500 643.500 1266.697 643.796 C 1272.368 644.068, 1273.032 643.880, 1274.537 641.584 C 1275.441 640.205, 1276.427 637.236, 1276.729 634.987 C 1277.198 631.487, 1276.883 630.487, 1274.540 628.042 C 1267.547 620.743, 1250.708 616.801, 1244.371 620.980 M 193.497 634.434 C 189.351 638.830, 187.419 643.840, 189.554 644.659 C 191.620 645.452, 196.789 643.139, 198.540 640.640 C 200.533 637.794, 200.438 632.382, 198.381 631.593 C 197.315 631.184, 195.648 632.154, 193.497 634.434 M 966.613 633.089 C 964.061 635.097, 960 641.772, 960 643.960 C 960 645.355, 963.299 645.277, 966.528 643.805 C 971.033 641.753, 973.569 634.547, 970.641 632.117 C 969.602 631.255, 968.655 631.484, 966.613 633.089 M 621.898 634.102 C 616.737 639.263, 612.601 654.289, 614.384 661.396 C 615.399 665.438, 619.441 665.910, 623.090 662.414 C 628.730 657.010, 632.073 639.405, 628.443 634.223 C 626.495 631.441, 624.594 631.406, 621.898 634.102 M 1142.503 635.297 C 1136.284 641.516, 1132.920 658.209, 1136.895 663.119 C 1138.521 665.127, 1139.193 665.318, 1141.621 664.464 C 1149.032 661.858, 1154.779 636.646, 1148.822 632.869 C 1146.711 631.531, 1145.993 631.807, 1142.503 635.297 M 244.481 635.615 C 239.428 641.068, 235.435 657.580, 238.255 661.367 C 239.540 663.094, 239.866 663.119, 242.572 661.707 C 248.264 658.736, 250.699 655.004, 252.401 646.643 C 254.563 636.019, 254.480 634.362, 251.750 633.630 C 247.993 632.623, 247.003 632.894, 244.481 635.615 M 509.481 635.615 C 504.428 641.068, 500.435 657.580, 503.255 661.367 C 504.540 663.094, 504.866 663.119, 507.572 661.707 C 513.264 658.736, 515.699 655.004, 517.401 646.643 C 519.563 636.019, 519.480 634.362, 516.750 633.630 C 512.993 632.623, 512.003 632.894, 509.481 635.615 M 1016.106 635.886 C 1014.498 637.608, 1012.447 641.150, 1011.548 643.758 C 1009.489 649.728, 1008.564 660.019, 1009.907 661.998 C 1010.797 663.309, 1011.376 663.252, 1014.542 661.547 C 1020.718 658.221, 1022.590 655.051, 1024.563 644.577 C 1025.552 639.325, 1026.135 634.802, 1025.858 634.524 C 1025.581 634.247, 1023.931 633.736, 1022.192 633.388 C 1019.517 632.853, 1018.580 633.238, 1016.106 635.886" stroke="none" fill="#fbfbfb" fill-rule="evenodd"/></svg>